<?xml version="1.0" standalone="no"?><!-- Generator: Gravit.io --><svg xmlns="http://www.w3.org/2000/svg" xmlns:xlink="http://www.w3.org/1999/xlink" style="isolation:isolate" viewBox="0 0 100 38" width="100" height="38"><path d=" M 25.956 22.64 L 25.956 22.64 L 25.956 15.168 L 25.956 15.168 Q 25.956 14.848 26.34 14.632 L 26.34 14.632 L 26.34 14.632 Q 26.724 14.416 27.188 14.416 L 27.188 14.416 L 27.188 14.416 Q 27.684 14.416 28.06 14.632 L 28.06 14.632 L 28.06 14.632 Q 28.436 14.848 28.436 15.168 L 28.436 15.168 L 28.436 17.728 L 30.244 17.728 L 30.244 17.728 Q 30.532 17.728 30.692 17.992 L 30.692 17.992 L 30.692 17.992 Q 30.852 18.256 30.852 18.608 L 30.852 18.608 L 30.852 18.608 Q 30.852 18.976 30.692 19.232 L 30.692 19.232 L 30.692 19.232 Q 30.532 19.488 30.244 19.488 L 30.244 19.488 L 28.436 19.488 L 28.436 22.64 L 28.436 22.64 Q 28.436 22.992 28.58 23.128 L 28.58 23.128 L 28.58 23.128 Q 28.724 23.264 29.092 23.264 L 29.092 23.264 L 29.78 23.264 L 29.78 23.264 Q 30.292 23.264 30.564 23.576 L 30.564 23.576 L 30.564 23.576 Q 30.836 23.888 30.836 24.304 L 30.836 24.304 L 30.836 24.304 Q 30.836 24.736 30.564 25.04 L 30.564 25.04 L 30.564 25.04 Q 30.292 25.344 29.78 25.344 L 29.78 25.344 L 29.092 25.344 L 29.092 25.344 Q 25.956 25.344 25.956 22.64 Z  M 31.38 23.376 L 31.38 23.376 L 31.38 23.376 Q 31.38 22.048 32.348 21.504 L 32.348 21.504 L 32.348 21.504 Q 33.316 20.96 35.124 20.96 L 35.124 20.96 L 35.7 20.96 L 35.7 20.8 L 35.7 20.8 Q 35.7 20.32 35.412 19.968 L 35.412 19.968 L 35.412 19.968 Q 35.124 19.616 34.5 19.616 L 34.5 19.616 L 34.5 19.616 Q 33.732 19.616 33.236 19.88 L 33.236 19.88 L 33.236 19.88 Q 32.74 20.144 32.628 20.144 L 32.628 20.144 L 32.628 20.144 Q 32.244 20.144 32.02 19.768 L 32.02 19.768 L 32.02 19.768 Q 31.796 19.392 31.796 18.912 L 31.796 18.912 L 31.796 18.912 Q 31.796 18.384 32.684 18.008 L 32.684 18.008 L 32.684 18.008 Q 33.572 17.632 34.532 17.632 L 34.532 17.632 L 34.532 17.632 Q 36.372 17.632 37.276 18.528 L 37.276 18.528 L 37.276 18.528 Q 38.18 19.424 38.18 20.768 L 38.18 20.768 L 38.18 24.576 L 38.18 24.576 Q 38.18 24.896 37.836 25.12 L 37.836 25.12 L 37.836 25.12 Q 37.492 25.344 36.964 25.344 L 36.964 25.344 L 36.964 25.344 Q 36.5 25.344 36.18 25.12 L 36.18 25.12 L 36.18 25.12 Q 35.86 24.896 35.86 24.576 L 35.86 24.576 L 35.86 24.224 L 35.86 24.224 Q 34.756 25.504 33.428 25.504 L 33.428 25.504 L 33.428 25.504 Q 32.548 25.504 31.964 24.96 L 31.964 24.96 L 31.964 24.96 Q 31.38 24.416 31.38 23.376 Z  M 33.876 23.024 L 33.876 23.024 L 33.876 23.024 Q 33.876 23.696 34.5 23.696 L 34.5 23.696 L 34.5 23.696 Q 34.9 23.696 35.3 23.248 L 35.3 23.248 L 35.3 23.248 Q 35.7 22.8 35.7 22.224 L 35.7 22.224 L 35.7 22.16 L 35.636 22.16 L 35.636 22.16 Q 35.108 22.16 34.764 22.208 L 34.764 22.208 L 34.764 22.208 Q 34.42 22.256 34.148 22.456 L 34.148 22.456 L 34.148 22.456 Q 33.876 22.656 33.876 23.024 Z  M 39.572 24.576 L 39.572 24.576 L 39.572 14.128 L 39.572 14.128 Q 39.572 13.792 39.916 13.584 L 39.916 13.584 L 39.916 13.584 Q 40.26 13.376 40.788 13.376 L 40.788 13.376 L 40.788 13.376 Q 41.332 13.376 41.692 13.584 L 41.692 13.584 L 41.692 13.584 Q 42.052 13.792 42.052 14.128 L 42.052 14.128 L 42.052 18.848 L 42.052 18.848 Q 42.324 18.336 42.86 17.984 L 42.86 17.984 L 42.86 17.984 Q 43.396 17.632 44.084 17.632 L 44.084 17.632 L 44.084 17.632 Q 45.252 17.632 46.084 18.624 L 46.084 18.624 L 46.084 18.624 Q 46.916 19.616 46.916 20.992 L 46.916 20.992 L 46.916 22.112 L 46.916 22.112 Q 46.916 23.456 46.076 24.48 L 46.076 24.48 L 46.076 24.48 Q 45.236 25.504 44.132 25.504 L 44.132 25.504 L 44.132 25.504 Q 43.396 25.504 42.772 25.128 L 42.772 25.128 L 42.772 25.128 Q 42.148 24.752 41.892 24.224 L 41.892 24.224 L 41.892 24.576 L 41.892 24.576 Q 41.892 24.864 41.564 25.104 L 41.564 25.104 L 41.564 25.104 Q 41.236 25.344 40.788 25.344 L 40.788 25.344 L 40.788 25.344 Q 40.276 25.344 39.924 25.112 L 39.924 25.112 L 39.924 25.112 Q 39.572 24.88 39.572 24.576 Z  M 42.052 20.992 L 42.052 22.32 L 42.052 22.32 Q 42.052 22.576 42.436 22.96 L 42.436 22.96 L 42.436 22.96 Q 42.82 23.344 43.284 23.344 L 43.284 23.344 L 43.284 23.344 Q 43.748 23.344 44.092 22.968 L 44.092 22.968 L 44.092 22.968 Q 44.436 22.592 44.436 22.112 L 44.436 22.112 L 44.436 20.992 L 44.436 20.992 Q 44.436 20.528 44.092 20.16 L 44.092 20.16 L 44.092 20.16 Q 43.748 19.792 43.268 19.792 L 43.268 19.792 L 43.268 19.792 Q 42.804 19.792 42.428 20.128 L 42.428 20.128 L 42.428 20.128 Q 42.052 20.464 42.052 20.992 L 42.052 20.992 L 42.052 20.992 Z  M 47.796 22.112 L 47.796 22.112 L 47.796 20.944 L 47.796 20.944 Q 47.796 19.584 48.876 18.608 L 48.876 18.608 L 48.876 18.608 Q 49.956 17.632 51.476 17.632 L 51.476 17.632 L 51.476 17.632 Q 52.9 17.632 53.908 18.488 L 53.908 18.488 L 53.908 18.488 Q 54.916 19.344 54.916 20.672 L 54.916 20.672 L 54.916 20.672 Q 54.916 21.184 54.788 21.504 L 54.788 21.504 L 54.788 21.504 Q 54.66 21.824 54.404 21.952 L 54.404 21.952 L 54.404 21.952 Q 54.148 22.08 53.932 22.12 L 53.932 22.12 L 53.932 22.12 Q 53.716 22.16 53.364 22.16 L 53.364 22.16 L 50.276 22.16 L 50.276 22.256 L 50.276 22.256 Q 50.276 22.848 50.724 23.208 L 50.724 23.208 L 50.724 23.208 Q 51.172 23.568 51.908 23.568 L 51.908 23.568 L 51.908 23.568 Q 52.468 23.568 53.084 23.272 L 53.084 23.272 L 53.084 23.272 Q 53.7 22.976 53.908 22.976 L 53.908 22.976 L 53.908 22.976 Q 54.308 22.976 54.564 23.352 L 54.564 23.352 L 54.564 23.352 Q 54.82 23.728 54.82 24.064 L 54.82 24.064 L 54.82 24.064 Q 54.82 24.56 53.964 25.032 L 53.964 25.032 L 53.964 25.032 Q 53.108 25.504 51.844 25.504 L 51.844 25.504 L 51.844 25.504 Q 50.052 25.504 48.924 24.568 L 48.924 24.568 L 48.924 24.568 Q 47.796 23.632 47.796 22.112 Z  M 50.276 20.384 L 50.276 20.768 L 52.26 20.768 L 52.26 20.768 Q 52.596 20.768 52.596 20.384 L 52.596 20.384 L 52.596 20.384 Q 52.596 19.936 52.252 19.68 L 52.252 19.68 L 52.252 19.68 Q 51.908 19.424 51.428 19.424 L 51.428 19.424 L 51.428 19.424 Q 50.964 19.424 50.62 19.68 L 50.62 19.68 L 50.62 19.68 Q 50.276 19.936 50.276 20.384 L 50.276 20.384 L 50.276 20.384 Z  M 56.02 24.576 L 56.02 24.576 L 56.02 18.48 L 56.02 18.48 Q 56.02 18.144 56.364 17.936 L 56.364 17.936 L 56.364 17.936 Q 56.708 17.728 57.236 17.728 L 57.236 17.728 L 57.236 17.728 Q 57.7 17.728 58.02 17.936 L 58.02 17.936 L 58.02 17.936 Q 58.34 18.144 58.34 18.48 L 58.34 18.48 L 58.34 19.072 L 58.34 19.072 Q 58.596 18.496 59.132 18.064 L 59.132 18.064 L 59.132 18.064 Q 59.668 17.632 60.244 17.632 L 60.244 17.632 L 60.708 17.632 L 60.708 17.632 Q 61.06 17.632 61.324 17.952 L 61.324 17.952 L 61.324 17.952 Q 61.588 18.272 61.588 18.704 L 61.588 18.704 L 61.588 18.704 Q 61.588 19.152 61.324 19.472 L 61.324 19.472 L 61.324 19.472 Q 61.06 19.792 60.708 19.792 L 60.708 19.792 L 60.244 19.792 L 60.244 19.792 Q 59.556 19.792 59.028 20.456 L 59.028 20.456 L 59.028 20.456 Q 58.5 21.12 58.5 22.176 L 58.5 22.176 L 58.5 24.576 L 58.5 24.576 Q 58.5 24.864 58.124 25.104 L 58.124 25.104 L 58.124 25.104 Q 57.748 25.344 57.236 25.344 L 57.236 25.344 L 57.236 25.344 Q 56.724 25.344 56.372 25.112 L 56.372 25.112 L 56.372 25.112 Q 56.02 24.88 56.02 24.576 Z  M 62.324 24.576 L 62.324 24.576 L 62.324 18.48 L 62.324 18.48 Q 62.324 18.144 62.668 17.936 L 62.668 17.936 L 62.668 17.936 Q 63.012 17.728 63.556 17.728 L 63.556 17.728 L 63.556 17.728 Q 64.004 17.728 64.324 17.936 L 64.324 17.936 L 64.324 17.936 Q 64.644 18.144 64.644 18.48 L 64.644 18.48 L 64.644 18.848 L 64.644 18.848 Q 64.9 18.336 65.468 17.984 L 65.468 17.984 L 65.468 17.984 Q 66.036 17.632 66.788 17.632 L 66.788 17.632 L 66.788 17.632 Q 67.892 17.632 68.7 18.624 L 68.7 18.624 L 68.7 18.624 Q 69.508 19.616 69.508 20.992 L 69.508 20.992 L 69.508 24.576 L 69.508 24.576 Q 69.508 24.944 69.14 25.144 L 69.14 25.144 L 69.14 25.144 Q 68.772 25.344 68.26 25.344 L 68.26 25.344 L 68.26 25.344 Q 67.78 25.344 67.404 25.136 L 67.404 25.136 L 67.404 25.136 Q 67.028 24.928 67.028 24.576 L 67.028 24.576 L 67.028 20.992 L 67.028 20.992 Q 67.028 20.528 66.684 20.16 L 66.684 20.16 L 66.684 20.16 Q 66.34 19.792 65.876 19.792 L 65.876 19.792 L 65.876 19.792 Q 65.46 19.792 65.132 20.12 L 65.132 20.12 L 65.132 20.12 Q 64.804 20.448 64.804 20.992 L 64.804 20.992 L 64.804 24.576 L 64.804 24.576 Q 64.804 24.864 64.428 25.104 L 64.428 25.104 L 64.428 25.104 Q 64.052 25.344 63.556 25.344 L 63.556 25.344 L 63.556 25.344 Q 63.028 25.344 62.676 25.112 L 62.676 25.112 L 62.676 25.112 Q 62.324 24.88 62.324 24.576 Z  M 70.436 23.376 L 70.436 23.376 L 70.436 23.376 Q 70.436 22.048 71.404 21.504 L 71.404 21.504 L 71.404 21.504 Q 72.372 20.96 74.18 20.96 L 74.18 20.96 L 74.756 20.96 L 74.756 20.8 L 74.756 20.8 Q 74.756 20.32 74.468 19.968 L 74.468 19.968 L 74.468 19.968 Q 74.18 19.616 73.556 19.616 L 73.556 19.616 L 73.556 19.616 Q 72.788 19.616 72.292 19.88 L 72.292 19.88 L 72.292 19.88 Q 71.796 20.144 71.684 20.144 L 71.684 20.144 L 71.684 20.144 Q 71.3 20.144 71.076 19.768 L 71.076 19.768 L 71.076 19.768 Q 70.852 19.392 70.852 18.912 L 70.852 18.912 L 70.852 18.912 Q 70.852 18.384 71.74 18.008 L 71.74 18.008 L 71.74 18.008 Q 72.628 17.632 73.588 17.632 L 73.588 17.632 L 73.588 17.632 Q 75.428 17.632 76.332 18.528 L 76.332 18.528 L 76.332 18.528 Q 77.236 19.424 77.236 20.768 L 77.236 20.768 L 77.236 24.576 L 77.236 24.576 Q 77.236 24.896 76.892 25.12 L 76.892 25.12 L 76.892 25.12 Q 76.548 25.344 76.02 25.344 L 76.02 25.344 L 76.02 25.344 Q 75.556 25.344 75.236 25.12 L 75.236 25.12 L 75.236 25.12 Q 74.916 24.896 74.916 24.576 L 74.916 24.576 L 74.916 24.224 L 74.916 24.224 Q 73.812 25.504 72.484 25.504 L 72.484 25.504 L 72.484 25.504 Q 71.604 25.504 71.02 24.96 L 71.02 24.96 L 71.02 24.96 Q 70.436 24.416 70.436 23.376 Z  M 72.932 23.024 L 72.932 23.024 L 72.932 23.024 Q 72.932 23.696 73.556 23.696 L 73.556 23.696 L 73.556 23.696 Q 73.956 23.696 74.356 23.248 L 74.356 23.248 L 74.356 23.248 Q 74.756 22.8 74.756 22.224 L 74.756 22.224 L 74.756 22.16 L 74.692 22.16 L 74.692 22.16 Q 74.164 22.16 73.82 22.208 L 73.82 22.208 L 73.82 22.208 Q 73.476 22.256 73.204 22.456 L 73.204 22.456 L 73.204 22.456 Q 72.932 22.656 72.932 23.024 Z  M 78.34 22.112 L 78.34 22.112 L 78.34 21.024 L 78.34 21.024 Q 78.34 19.504 79.244 18.568 L 79.244 18.568 L 79.244 18.568 Q 80.148 17.632 81.94 17.632 L 81.94 17.632 L 81.94 17.632 Q 83.092 17.632 83.868 18.024 L 83.868 18.024 L 83.868 18.024 Q 84.644 18.416 84.644 18.96 L 84.644 18.96 L 84.644 18.96 Q 84.644 19.36 84.364 19.768 L 84.364 19.768 L 84.364 19.768 Q 84.084 20.176 83.684 20.176 L 83.684 20.176 L 83.684 20.176 Q 83.556 20.176 83.1 19.984 L 83.1 19.984 L 83.1 19.984 Q 82.644 19.792 82.148 19.792 L 82.148 19.792 L 82.148 19.792 Q 80.82 19.792 80.82 21.024 L 80.82 21.024 L 80.82 22.112 L 80.82 22.112 Q 80.82 23.344 82.164 23.344 L 82.164 23.344 L 82.164 23.344 Q 82.644 23.344 83.084 23.128 L 83.084 23.128 L 83.084 23.128 Q 83.524 22.912 83.684 22.912 L 83.684 22.912 L 83.684 22.912 Q 84.148 22.912 84.444 23.296 L 84.444 23.296 L 84.444 23.296 Q 84.74 23.68 84.74 24.096 L 84.74 24.096 L 84.74 24.096 Q 84.74 24.656 83.924 25.08 L 83.924 25.08 L 83.924 25.08 Q 83.108 25.504 81.972 25.504 L 81.972 25.504 L 81.972 25.504 Q 80.148 25.504 79.244 24.576 L 79.244 24.576 L 79.244 24.576 Q 78.34 23.648 78.34 22.112 Z  M 85.828 24.576 L 85.828 24.576 L 85.828 14.128 L 85.828 14.128 Q 85.828 13.792 86.172 13.584 L 86.172 13.584 L 86.172 13.584 Q 86.516 13.376 87.06 13.376 L 87.06 13.376 L 87.06 13.376 Q 87.588 13.376 87.948 13.584 L 87.948 13.584 L 87.948 13.584 Q 88.308 13.792 88.308 14.128 L 88.308 14.128 L 88.308 24.576 L 88.308 24.576 Q 88.308 24.864 87.94 25.104 L 87.94 25.104 L 87.94 25.104 Q 87.572 25.344 87.06 25.344 L 87.06 25.344 L 87.06 25.344 Q 86.532 25.344 86.18 25.112 L 86.18 25.112 L 86.18 25.112 Q 85.828 24.88 85.828 24.576 Z  M 89.604 22.112 L 89.604 22.112 L 89.604 20.944 L 89.604 20.944 Q 89.604 19.584 90.684 18.608 L 90.684 18.608 L 90.684 18.608 Q 91.764 17.632 93.284 17.632 L 93.284 17.632 L 93.284 17.632 Q 94.708 17.632 95.716 18.488 L 95.716 18.488 L 95.716 18.488 Q 96.724 19.344 96.724 20.672 L 96.724 20.672 L 96.724 20.672 Q 96.724 21.184 96.596 21.504 L 96.596 21.504 L 96.596 21.504 Q 96.468 21.824 96.212 21.952 L 96.212 21.952 L 96.212 21.952 Q 95.956 22.08 95.74 22.12 L 95.74 22.12 L 95.74 22.12 Q 95.524 22.16 95.172 22.16 L 95.172 22.16 L 92.084 22.16 L 92.084 22.256 L 92.084 22.256 Q 92.084 22.848 92.532 23.208 L 92.532 23.208 L 92.532 23.208 Q 92.98 23.568 93.716 23.568 L 93.716 23.568 L 93.716 23.568 Q 94.276 23.568 94.892 23.272 L 94.892 23.272 L 94.892 23.272 Q 95.508 22.976 95.716 22.976 L 95.716 22.976 L 95.716 22.976 Q 96.116 22.976 96.372 23.352 L 96.372 23.352 L 96.372 23.352 Q 96.628 23.728 96.628 24.064 L 96.628 24.064 L 96.628 24.064 Q 96.628 24.56 95.772 25.032 L 95.772 25.032 L 95.772 25.032 Q 94.916 25.504 93.652 25.504 L 93.652 25.504 L 93.652 25.504 Q 91.86 25.504 90.732 24.568 L 90.732 24.568 L 90.732 24.568 Q 89.604 23.632 89.604 22.112 Z  M 92.084 20.384 L 92.084 20.768 L 94.068 20.768 L 94.068 20.768 Q 94.404 20.768 94.404 20.384 L 94.404 20.384 L 94.404 20.384 Q 94.404 19.936 94.06 19.68 L 94.06 19.68 L 94.06 19.68 Q 93.716 19.424 93.236 19.424 L 93.236 19.424 L 93.236 19.424 Q 92.772 19.424 92.428 19.68 L 92.428 19.68 L 92.428 19.68 Q 92.084 19.936 92.084 20.384 L 92.084 20.384 L 92.084 20.384 Z  M 1.364 24.576 L 1.364 24.576 L 1.364 14.128 L 1.364 14.128 Q 1.364 13.792 1.708 13.584 L 1.708 13.584 L 1.708 13.584 Q 2.052 13.376 2.596 13.376 L 2.596 13.376 L 2.596 13.376 Q 3.124 13.376 3.484 13.584 L 3.484 13.584 L 3.484 13.584 Q 3.844 13.792 3.844 14.128 L 3.844 14.128 L 3.844 24.576 L 3.844 24.576 Q 3.844 24.864 3.476 25.104 L 3.476 25.104 L 3.476 25.104 Q 3.108 25.344 2.596 25.344 L 2.596 25.344 L 2.596 25.344 Q 2.068 25.344 1.716 25.112 L 1.716 25.112 L 1.716 25.112 Q 1.364 24.88 1.364 24.576 Z  M 5.732 15.912 L 5.732 15.912 L 5.732 15.912 Q 5.348 15.568 5.348 15.104 L 5.348 15.104 L 5.348 15.104 Q 5.348 14.64 5.732 14.304 L 5.732 14.304 L 5.732 14.304 Q 6.116 13.968 6.66 13.968 L 6.66 13.968 L 6.66 13.968 Q 7.188 13.968 7.572 14.304 L 7.572 14.304 L 7.572 14.304 Q 7.956 14.64 7.956 15.104 L 7.956 15.104 L 7.956 15.104 Q 7.956 15.568 7.572 15.912 L 7.572 15.912 L 7.572 15.912 Q 7.188 16.256 6.66 16.256 L 6.66 16.256 L 6.66 16.256 Q 6.116 16.256 5.732 15.912 Z  M 5.428 24.576 L 5.428 24.576 L 5.428 18.48 L 5.428 18.48 Q 5.428 18.144 5.772 17.936 L 5.772 17.936 L 5.772 17.936 Q 6.116 17.728 6.66 17.728 L 6.66 17.728 L 6.66 17.728 Q 7.188 17.728 7.548 17.936 L 7.548 17.936 L 7.548 17.936 Q 7.908 18.144 7.908 18.48 L 7.908 18.48 L 7.908 24.576 L 7.908 24.576 Q 7.908 24.864 7.54 25.104 L 7.54 25.104 L 7.54 25.104 Q 7.172 25.344 6.66 25.344 L 6.66 25.344 L 6.66 25.344 Q 6.132 25.344 5.78 25.112 L 5.78 25.112 L 5.78 25.112 Q 5.428 24.88 5.428 24.576 Z  M 9.348 24.592 L 9.348 24.592 L 9.348 16.592 L 9.348 16.592 Q 9.348 15.216 10.172 14.296 L 10.172 14.296 L 10.172 14.296 Q 10.996 13.376 12.164 13.376 L 12.164 13.376 L 13.316 13.376 L 13.316 13.376 Q 13.764 13.376 14.004 13.688 L 14.004 13.688 L 14.004 13.688 Q 14.244 14 14.244 14.416 L 14.244 14.416 L 14.244 14.416 Q 14.244 14.848 14.004 15.152 L 14.004 15.152 L 14.004 15.152 Q 13.764 15.456 13.316 15.456 L 13.316 15.456 L 12.708 15.456 L 12.708 15.456 Q 11.828 15.456 11.828 16.32 L 11.828 16.32 L 11.828 17.728 L 13.636 17.728 L 13.636 17.728 Q 13.924 17.728 14.084 17.992 L 14.084 17.992 L 14.084 17.992 Q 14.244 18.256 14.244 18.608 L 14.244 18.608 L 14.244 18.608 Q 14.244 18.976 14.084 19.232 L 14.084 19.232 L 14.084 19.232 Q 13.924 19.488 13.636 19.488 L 13.636 19.488 L 11.828 19.488 L 11.828 24.592 L 11.828 24.592 Q 11.828 24.912 11.452 25.128 L 11.452 25.128 L 11.452 25.128 Q 11.076 25.344 10.564 25.344 L 10.564 25.344 L 10.564 25.344 Q 10.036 25.344 9.692 25.136 L 9.692 25.136 L 9.692 25.136 Q 9.348 24.928 9.348 24.592 Z  M 14.564 22.112 L 14.564 22.112 L 14.564 20.944 L 14.564 20.944 Q 14.564 19.584 15.644 18.608 L 15.644 18.608 L 15.644 18.608 Q 16.724 17.632 18.244 17.632 L 18.244 17.632 L 18.244 17.632 Q 19.668 17.632 20.676 18.488 L 20.676 18.488 L 20.676 18.488 Q 21.684 19.344 21.684 20.672 L 21.684 20.672 L 21.684 20.672 Q 21.684 21.184 21.556 21.504 L 21.556 21.504 L 21.556 21.504 Q 21.428 21.824 21.172 21.952 L 21.172 21.952 L 21.172 21.952 Q 20.916 22.08 20.7 22.12 L 20.7 22.12 L 20.7 22.12 Q 20.484 22.16 20.132 22.16 L 20.132 22.16 L 17.044 22.16 L 17.044 22.256 L 17.044 22.256 Q 17.044 22.848 17.492 23.208 L 17.492 23.208 L 17.492 23.208 Q 17.94 23.568 18.676 23.568 L 18.676 23.568 L 18.676 23.568 Q 19.236 23.568 19.852 23.272 L 19.852 23.272 L 19.852 23.272 Q 20.468 22.976 20.676 22.976 L 20.676 22.976 L 20.676 22.976 Q 21.076 22.976 21.332 23.352 L 21.332 23.352 L 21.332 23.352 Q 21.588 23.728 21.588 24.064 L 21.588 24.064 L 21.588 24.064 Q 21.588 24.56 20.732 25.032 L 20.732 25.032 L 20.732 25.032 Q 19.876 25.504 18.612 25.504 L 18.612 25.504 L 18.612 25.504 Q 16.82 25.504 15.692 24.568 L 15.692 24.568 L 15.692 24.568 Q 14.564 23.632 14.564 22.112 Z  M 17.044 20.384 L 17.044 20.768 L 19.028 20.768 L 19.028 20.768 Q 19.364 20.768 19.364 20.384 L 19.364 20.384 L 19.364 20.384 Q 19.364 19.936 19.02 19.68 L 19.02 19.68 L 19.02 19.68 Q 18.676 19.424 18.196 19.424 L 18.196 19.424 L 18.196 19.424 Q 17.732 19.424 17.388 19.68 L 17.388 19.68 L 17.388 19.68 Q 17.044 19.936 17.044 20.384 L 17.044 20.384 L 17.044 20.384 Z " fill="rgb(0,0,0)"/></svg>