<?xml version="1.0" standalone="no"?><!-- Generator: Gravit.io --><svg xmlns="http://www.w3.org/2000/svg" xmlns:xlink="http://www.w3.org/1999/xlink" style="isolation:isolate" viewBox="0 0 140 38" width="140" height="38"><path d=" M 36.075 25.1 L 36.075 25.1 L 36.075 12.225 L 36.075 12.225 Q 36.075 11.925 36.4 11.712 L 36.4 11.712 L 36.4 11.712 Q 36.725 11.5 37.1 11.5 L 37.1 11.5 L 37.1 11.5 Q 37.5 11.5 37.825 11.712 L 37.825 11.712 L 37.825 11.712 Q 38.15 11.925 38.15 12.225 L 38.15 12.225 L 38.15 17.025 L 41.3 17.025 L 41.3 17.025 Q 41.575 17.025 41.75 17.275 L 41.75 17.275 L 41.75 17.275 Q 41.925 17.525 41.925 17.85 L 41.925 17.85 L 41.925 17.85 Q 41.925 18.175 41.75 18.413 L 41.75 18.413 L 41.75 18.413 Q 41.575 18.65 41.3 18.65 L 41.3 18.65 L 38.15 18.65 L 38.15 25.1 L 38.15 25.1 Q 38.15 26.175 38.613 26.613 L 38.613 26.613 L 38.613 26.613 Q 39.075 27.05 40.225 27.05 L 40.225 27.05 L 41 27.05 L 41 27.05 Q 41.425 27.05 41.663 27.313 L 41.663 27.313 L 41.663 27.313 Q 41.9 27.575 41.9 27.95 L 41.9 27.95 L 41.9 27.95 Q 41.9 28.325 41.65 28.6 L 41.65 28.6 L 41.65 28.6 Q 41.4 28.875 41 28.875 L 41 28.875 L 40.225 28.875 L 40.225 28.875 Q 36.075 28.875 36.075 25.1 Z  M 43.1 25.75 L 43.1 25.75 L 43.1 25.75 Q 43.1 23.8 44.6 23.037 L 44.6 23.037 L 44.6 23.037 Q 46.1 22.275 48.95 22.275 L 48.95 22.275 L 50.15 22.275 L 50.15 21.75 L 50.15 21.75 Q 50.15 20.5 49.463 19.575 L 49.463 19.575 L 49.463 19.575 Q 48.775 18.65 47.4 18.65 L 47.4 18.65 L 47.4 18.65 Q 46.35 18.65 45.55 19.013 L 45.55 19.013 L 45.55 19.013 Q 44.75 19.375 44.675 19.375 L 44.675 19.375 L 44.675 19.375 Q 44.325 19.375 44.113 19.038 L 44.113 19.038 L 44.113 19.038 Q 43.9 18.7 43.9 18.325 L 43.9 18.325 L 43.9 18.325 Q 43.9 17.75 45.038 17.313 L 45.038 17.313 L 45.038 17.313 Q 46.175 16.875 47.45 16.875 L 47.45 16.875 L 47.45 16.875 Q 49.9 16.875 51.063 18.263 L 51.063 18.263 L 51.063 18.263 Q 52.225 19.65 52.225 21.725 L 52.225 21.725 L 52.225 28.125 L 52.225 28.125 Q 52.225 28.45 51.938 28.663 L 51.938 28.663 L 51.938 28.663 Q 51.65 28.875 51.2 28.875 L 51.2 28.875 L 51.2 28.875 Q 50.8 28.875 50.525 28.663 L 50.525 28.663 L 50.525 28.663 Q 50.25 28.45 50.25 28.125 L 50.25 28.125 L 50.25 27.125 L 50.25 27.125 Q 48.55 29.075 46.475 29.075 L 46.475 29.075 L 46.475 29.075 Q 44.975 29.075 44.038 28.225 L 44.038 28.225 L 44.038 28.225 Q 43.1 27.375 43.1 25.75 Z  M 45.2 25.525 L 45.2 25.525 L 45.2 25.525 Q 45.2 26.45 45.725 26.925 L 45.725 26.925 L 45.725 26.925 Q 46.25 27.4 47.125 27.4 L 47.125 27.4 L 47.125 27.4 Q 48.175 27.4 49.163 26.563 L 49.163 26.563 L 49.163 26.563 Q 50.15 25.725 50.15 24.85 L 50.15 24.85 L 50.15 23.55 L 49.275 23.55 L 49.275 23.55 Q 48.55 23.55 48.025 23.588 L 48.025 23.588 L 48.025 23.588 Q 47.5 23.625 46.938 23.738 L 46.938 23.738 L 46.938 23.738 Q 46.375 23.85 46.012 24.063 L 46.012 24.063 L 46.012 24.063 Q 45.65 24.275 45.425 24.638 L 45.425 24.638 L 45.425 24.638 Q 45.2 25 45.2 25.525 Z  M 55.1 28.125 L 55.1 28.125 L 55.1 10.6 L 55.1 10.6 Q 55.1 10.275 55.388 10.075 L 55.388 10.075 L 55.388 10.075 Q 55.675 9.875 56.125 9.875 L 56.125 9.875 L 56.125 9.875 Q 56.575 9.875 56.875 10.075 L 56.875 10.075 L 56.875 10.075 Q 57.175 10.275 57.175 10.6 L 57.175 10.6 L 57.175 18.775 L 57.175 18.775 Q 57.625 17.975 58.475 17.425 L 58.475 17.425 L 58.475 17.425 Q 59.325 16.875 60.45 16.875 L 60.45 16.875 L 60.45 16.875 Q 62.275 16.875 63.6 18.288 L 63.6 18.288 L 63.6 18.288 Q 64.925 19.7 64.925 21.675 L 64.925 21.675 L 64.925 24.225 L 64.925 24.225 Q 64.925 26.125 63.6 27.6 L 63.6 27.6 L 63.6 27.6 Q 62.275 29.075 60.525 29.075 L 60.525 29.075 L 60.525 29.075 Q 59.4 29.075 58.45 28.5 L 58.45 28.5 L 58.45 28.5 Q 57.5 27.925 57.075 27.125 L 57.075 27.125 L 57.075 28.125 L 57.075 28.125 Q 57.075 28.425 56.788 28.65 L 56.788 28.65 L 56.788 28.65 Q 56.5 28.875 56.125 28.875 L 56.125 28.875 L 56.125 28.875 Q 55.7 28.875 55.4 28.65 L 55.4 28.65 L 55.4 28.65 Q 55.1 28.425 55.1 28.125 Z  M 57.175 21.675 L 57.175 24.9 L 57.175 24.9 Q 57.175 25.525 58.05 26.363 L 58.05 26.363 L 58.05 26.363 Q 58.925 27.2 60.025 27.2 L 60.025 27.2 L 60.025 27.2 Q 61.15 27.2 62 26.287 L 62 26.287 L 62 26.287 Q 62.85 25.375 62.85 24.225 L 62.85 24.225 L 62.85 21.675 L 62.85 21.675 Q 62.85 20.55 62 19.65 L 62 19.65 L 62 19.65 Q 61.15 18.75 60 18.75 L 60 18.75 L 60 18.75 Q 58.875 18.75 58.025 19.563 L 58.025 19.563 L 58.025 19.563 Q 57.175 20.375 57.175 21.675 L 57.175 21.675 L 57.175 21.675 Z  M 66.975 24.225 L 66.975 24.225 L 66.975 21.6 L 66.975 21.6 Q 66.975 19.675 68.438 18.275 L 68.438 18.275 L 68.438 18.275 Q 69.9 16.875 71.95 16.875 L 71.95 16.875 L 71.95 16.875 Q 73.9 16.875 75.325 18.188 L 75.325 18.188 L 75.325 18.188 Q 76.75 19.5 76.75 21.475 L 76.75 21.475 L 76.75 21.475 Q 76.75 22.2 76.575 22.638 L 76.575 22.638 L 76.575 22.638 Q 76.4 23.075 76.038 23.263 L 76.038 23.263 L 76.038 23.263 Q 75.675 23.45 75.363 23.5 L 75.363 23.5 L 75.363 23.5 Q 75.05 23.55 74.525 23.55 L 74.525 23.55 L 69.05 23.55 L 69.05 24.3 L 69.05 24.3 Q 69.05 25.675 70.038 26.5 L 70.038 26.5 L 70.038 26.5 Q 71.025 27.325 72.6 27.325 L 72.6 27.325 L 72.6 27.325 Q 73.425 27.325 74.038 27.075 L 74.038 27.075 L 74.038 27.075 Q 74.65 26.825 75.025 26.588 L 75.025 26.588 L 75.025 26.588 Q 75.4 26.35 75.625 26.35 L 75.625 26.35 L 75.625 26.35 Q 75.975 26.35 76.225 26.663 L 76.225 26.663 L 76.225 26.663 Q 76.475 26.975 76.475 27.3 L 76.475 27.3 L 76.475 27.3 Q 76.475 27.875 75.338 28.475 L 75.338 28.475 L 75.338 28.475 Q 74.2 29.075 72.525 29.075 L 72.525 29.075 L 72.525 29.075 Q 70.075 29.075 68.525 27.738 L 68.525 27.738 L 68.525 27.738 Q 66.975 26.4 66.975 24.225 Z  M 69.05 21.25 L 69.05 22.15 L 73.675 22.15 L 73.675 22.15 Q 74.325 22.15 74.55 21.988 L 74.55 21.988 L 74.55 21.988 Q 74.775 21.825 74.775 21.35 L 74.775 21.35 L 74.775 21.35 Q 74.775 20.225 73.95 19.375 L 73.95 19.375 L 73.95 19.375 Q 73.125 18.525 71.925 18.525 L 71.925 18.525 L 71.925 18.525 Q 70.75 18.525 69.9 19.313 L 69.9 19.313 L 69.9 19.313 Q 69.05 20.1 69.05 21.25 L 69.05 21.25 L 69.05 21.25 Z  M 79.05 28.125 L 79.05 28.125 L 79.05 17.75 L 79.05 17.75 Q 79.05 17.425 79.338 17.225 L 79.338 17.225 L 79.338 17.225 Q 79.625 17.025 80.075 17.025 L 80.075 17.025 L 80.075 17.025 Q 80.475 17.025 80.75 17.225 L 80.75 17.225 L 80.75 17.225 Q 81.025 17.425 81.025 17.75 L 81.025 17.75 L 81.025 18.925 L 81.025 18.925 Q 81.475 18.075 82.35 17.475 L 82.35 17.475 L 82.35 17.475 Q 83.225 16.875 84.3 16.875 L 84.3 16.875 L 85.15 16.875 L 85.15 16.875 Q 85.475 16.875 85.713 17.163 L 85.713 17.163 L 85.713 17.163 Q 85.95 17.45 85.95 17.825 L 85.95 17.825 L 85.95 17.825 Q 85.95 18.2 85.713 18.475 L 85.713 18.475 L 85.713 18.475 Q 85.475 18.75 85.15 18.75 L 85.15 18.75 L 84.3 18.75 L 84.3 18.75 Q 83.025 18.75 82.075 19.775 L 82.075 19.775 L 82.075 19.775 Q 81.125 20.8 81.125 22.425 L 81.125 22.425 L 81.125 28.125 L 81.125 28.125 Q 81.125 28.4 80.813 28.638 L 80.813 28.638 L 80.813 28.638 Q 80.5 28.875 80.075 28.875 L 80.075 28.875 L 80.075 28.875 Q 79.65 28.875 79.35 28.65 L 79.35 28.65 L 79.35 28.65 Q 79.05 28.425 79.05 28.125 Z  M 87.65 28.125 L 87.65 28.125 L 87.65 17.75 L 87.65 17.75 Q 87.65 17.425 87.938 17.225 L 87.938 17.225 L 87.938 17.225 Q 88.225 17.025 88.675 17.025 L 88.675 17.025 L 88.675 17.025 Q 89.05 17.025 89.337 17.237 L 89.337 17.237 L 89.337 17.237 Q 89.625 17.45 89.625 17.75 L 89.625 17.75 L 89.625 18.775 L 89.625 18.775 Q 90.025 17.975 90.913 17.425 L 90.913 17.425 L 90.913 17.425 Q 91.8 16.875 92.975 16.875 L 92.975 16.875 L 92.975 16.875 Q 94.75 16.875 96.063 18.288 L 96.063 18.288 L 96.063 18.288 Q 97.375 19.7 97.375 21.675 L 97.375 21.675 L 97.375 28.125 L 97.375 28.125 Q 97.375 28.475 97.063 28.675 L 97.063 28.675 L 97.063 28.675 Q 96.75 28.875 96.325 28.875 L 96.325 28.875 L 96.325 28.875 Q 95.925 28.875 95.613 28.675 L 95.613 28.675 L 95.613 28.675 Q 95.3 28.475 95.3 28.125 L 95.3 28.125 L 95.3 21.675 L 95.3 21.675 Q 95.3 20.55 94.45 19.65 L 94.45 19.65 L 94.45 19.65 Q 93.6 18.75 92.45 18.75 L 92.45 18.75 L 92.45 18.75 Q 91.375 18.75 90.55 19.563 L 90.55 19.563 L 90.55 19.563 Q 89.725 20.375 89.725 21.675 L 89.725 21.675 L 89.725 28.125 L 89.725 28.125 Q 89.725 28.4 89.4 28.638 L 89.4 28.638 L 89.4 28.638 Q 89.075 28.875 88.675 28.875 L 88.675 28.875 L 88.675 28.875 Q 88.25 28.875 87.95 28.65 L 87.95 28.65 L 87.95 28.65 Q 87.65 28.425 87.65 28.125 Z  M 99.45 25.75 L 99.45 25.75 L 99.45 25.75 Q 99.45 23.8 100.95 23.037 L 100.95 23.037 L 100.95 23.037 Q 102.45 22.275 105.3 22.275 L 105.3 22.275 L 106.5 22.275 L 106.5 21.75 L 106.5 21.75 Q 106.5 20.5 105.813 19.575 L 105.813 19.575 L 105.813 19.575 Q 105.125 18.65 103.75 18.65 L 103.75 18.65 L 103.75 18.65 Q 102.7 18.65 101.9 19.013 L 101.9 19.013 L 101.9 19.013 Q 101.1 19.375 101.025 19.375 L 101.025 19.375 L 101.025 19.375 Q 100.675 19.375 100.463 19.038 L 100.463 19.038 L 100.463 19.038 Q 100.25 18.7 100.25 18.325 L 100.25 18.325 L 100.25 18.325 Q 100.25 17.75 101.388 17.313 L 101.388 17.313 L 101.388 17.313 Q 102.525 16.875 103.8 16.875 L 103.8 16.875 L 103.8 16.875 Q 106.25 16.875 107.413 18.263 L 107.413 18.263 L 107.413 18.263 Q 108.575 19.65 108.575 21.725 L 108.575 21.725 L 108.575 28.125 L 108.575 28.125 Q 108.575 28.45 108.288 28.663 L 108.288 28.663 L 108.288 28.663 Q 108 28.875 107.55 28.875 L 107.55 28.875 L 107.55 28.875 Q 107.15 28.875 106.875 28.663 L 106.875 28.663 L 106.875 28.663 Q 106.6 28.45 106.6 28.125 L 106.6 28.125 L 106.6 27.125 L 106.6 27.125 Q 104.9 29.075 102.825 29.075 L 102.825 29.075 L 102.825 29.075 Q 101.325 29.075 100.388 28.225 L 100.388 28.225 L 100.388 28.225 Q 99.45 27.375 99.45 25.75 Z  M 101.55 25.525 L 101.55 25.525 L 101.55 25.525 Q 101.55 26.45 102.075 26.925 L 102.075 26.925 L 102.075 26.925 Q 102.6 27.4 103.475 27.4 L 103.475 27.4 L 103.475 27.4 Q 104.525 27.4 105.513 26.563 L 105.513 26.563 L 105.513 26.563 Q 106.5 25.725 106.5 24.85 L 106.5 24.85 L 106.5 23.55 L 105.625 23.55 L 105.625 23.55 Q 104.9 23.55 104.375 23.588 L 104.375 23.588 L 104.375 23.588 Q 103.85 23.625 103.288 23.738 L 103.288 23.738 L 103.288 23.738 Q 102.725 23.85 102.363 24.063 L 102.363 24.063 L 102.363 24.063 Q 102 24.275 101.775 24.638 L 101.775 24.638 L 101.775 24.638 Q 101.55 25 101.55 25.525 Z  M 111 24.225 L 111 24.225 L 111 21.725 L 111 21.725 Q 111 19.575 112.263 18.225 L 112.263 18.225 L 112.263 18.225 Q 113.525 16.875 115.975 16.875 L 115.975 16.875 L 115.975 16.875 Q 117.525 16.875 118.588 17.425 L 118.588 17.425 L 118.588 17.425 Q 119.65 17.975 119.65 18.6 L 119.65 18.6 L 119.65 18.6 Q 119.65 18.95 119.388 19.287 L 119.388 19.287 L 119.388 19.287 Q 119.125 19.625 118.775 19.625 L 118.775 19.625 L 118.775 19.625 Q 118.675 19.625 117.913 19.188 L 117.913 19.188 L 117.913 19.188 Q 117.15 18.75 116.125 18.75 L 116.125 18.75 L 116.125 18.75 Q 114.625 18.75 113.85 19.525 L 113.85 19.525 L 113.85 19.525 Q 113.075 20.3 113.075 21.725 L 113.075 21.725 L 113.075 24.225 L 113.075 24.225 Q 113.075 27.2 116.15 27.2 L 116.15 27.2 L 116.15 27.2 Q 117.2 27.2 117.975 26.75 L 117.975 26.75 L 117.975 26.75 Q 118.75 26.3 118.875 26.3 L 118.875 26.3 L 118.875 26.3 Q 119.275 26.3 119.538 26.625 L 119.538 26.625 L 119.538 26.625 Q 119.8 26.95 119.8 27.3 L 119.8 27.3 L 119.8 27.3 Q 119.8 27.925 118.7 28.5 L 118.7 28.5 L 118.7 28.5 Q 117.6 29.075 116 29.075 L 116 29.075 L 116 29.075 Q 113.525 29.075 112.263 27.738 L 112.263 27.738 L 112.263 27.738 Q 111 26.4 111 24.225 Z  M 122.075 28.125 L 122.075 28.125 L 122.075 10.6 L 122.075 10.6 Q 122.075 10.275 122.363 10.075 L 122.363 10.075 L 122.363 10.075 Q 122.65 9.875 123.1 9.875 L 123.1 9.875 L 123.1 9.875 Q 123.55 9.875 123.85 10.075 L 123.85 10.075 L 123.85 10.075 Q 124.15 10.275 124.15 10.6 L 124.15 10.6 L 124.15 28.125 L 124.15 28.125 Q 124.15 28.4 123.838 28.638 L 123.838 28.638 L 123.838 28.638 Q 123.525 28.875 123.1 28.875 L 123.1 28.875 L 123.1 28.875 Q 122.675 28.875 122.375 28.65 L 122.375 28.65 L 122.375 28.65 Q 122.075 28.425 122.075 28.125 Z  M 126.875 24.225 L 126.875 24.225 L 126.875 21.6 L 126.875 21.6 Q 126.875 19.675 128.338 18.275 L 128.338 18.275 L 128.338 18.275 Q 129.8 16.875 131.85 16.875 L 131.85 16.875 L 131.85 16.875 Q 133.8 16.875 135.225 18.188 L 135.225 18.188 L 135.225 18.188 Q 136.65 19.5 136.65 21.475 L 136.65 21.475 L 136.65 21.475 Q 136.65 22.2 136.475 22.638 L 136.475 22.638 L 136.475 22.638 Q 136.3 23.075 135.938 23.263 L 135.938 23.263 L 135.938 23.263 Q 135.575 23.45 135.263 23.5 L 135.263 23.5 L 135.263 23.5 Q 134.95 23.55 134.425 23.55 L 134.425 23.55 L 128.95 23.55 L 128.95 24.3 L 128.95 24.3 Q 128.95 25.675 129.938 26.5 L 129.938 26.5 L 129.938 26.5 Q 130.925 27.325 132.5 27.325 L 132.5 27.325 L 132.5 27.325 Q 133.325 27.325 133.938 27.075 L 133.938 27.075 L 133.938 27.075 Q 134.55 26.825 134.925 26.588 L 134.925 26.588 L 134.925 26.588 Q 135.3 26.35 135.525 26.35 L 135.525 26.35 L 135.525 26.35 Q 135.875 26.35 136.125 26.663 L 136.125 26.663 L 136.125 26.663 Q 136.375 26.975 136.375 27.3 L 136.375 27.3 L 136.375 27.3 Q 136.375 27.875 135.237 28.475 L 135.237 28.475 L 135.237 28.475 Q 134.1 29.075 132.425 29.075 L 132.425 29.075 L 132.425 29.075 Q 129.975 29.075 128.425 27.738 L 128.425 27.738 L 128.425 27.738 Q 126.875 26.4 126.875 24.225 Z  M 128.95 21.25 L 128.95 22.15 L 133.575 22.15 L 133.575 22.15 Q 134.225 22.15 134.45 21.988 L 134.45 21.988 L 134.45 21.988 Q 134.675 21.825 134.675 21.35 L 134.675 21.35 L 134.675 21.35 Q 134.675 20.225 133.85 19.375 L 133.85 19.375 L 133.85 19.375 Q 133.025 18.525 131.825 18.525 L 131.825 18.525 L 131.825 18.525 Q 130.65 18.525 129.8 19.313 L 129.8 19.313 L 129.8 19.313 Q 128.95 20.1 128.95 21.25 L 128.95 21.25 L 128.95 21.25 Z  M 1.7 28.125 L 1.7 28.125 L 1.7 10.6 L 1.7 10.6 Q 1.7 10.275 1.988 10.075 L 1.988 10.075 L 1.988 10.075 Q 2.275 9.875 2.725 9.875 L 2.725 9.875 L 2.725 9.875 Q 3.175 9.875 3.475 10.075 L 3.475 10.075 L 3.475 10.075 Q 3.775 10.275 3.775 10.6 L 3.775 10.6 L 3.775 28.125 L 3.775 28.125 Q 3.775 28.4 3.463 28.638 L 3.463 28.638 L 3.463 28.638 Q 3.15 28.875 2.725 28.875 L 2.725 28.875 L 2.725 28.875 Q 2.3 28.875 2 28.65 L 2 28.65 L 2 28.65 Q 1.7 28.425 1.7 28.125 Z  M 7.063 13.413 L 7.063 13.413 L 7.063 13.413 Q 6.675 13.05 6.675 12.575 L 6.675 12.575 L 6.675 12.575 Q 6.675 12.1 7.05 11.75 L 7.05 11.75 L 7.05 11.75 Q 7.425 11.4 7.975 11.4 L 7.975 11.4 L 7.975 11.4 Q 8.5 11.4 8.875 11.75 L 8.875 11.75 L 8.875 11.75 Q 9.25 12.1 9.25 12.575 L 9.25 12.575 L 9.25 12.575 Q 9.25 13.05 8.875 13.413 L 8.875 13.413 L 8.875 13.413 Q 8.5 13.775 7.975 13.775 L 7.975 13.775 L 7.975 13.775 Q 7.45 13.775 7.063 13.413 Z  M 6.95 28.125 L 6.95 28.125 L 6.95 17.75 L 6.95 17.75 Q 6.95 17.425 7.25 17.225 L 7.25 17.225 L 7.25 17.225 Q 7.55 17.025 7.975 17.025 L 7.975 17.025 L 7.975 17.025 Q 8.425 17.025 8.725 17.225 L 8.725 17.225 L 8.725 17.225 Q 9.025 17.425 9.025 17.75 L 9.025 17.75 L 9.025 28.125 L 9.025 28.125 Q 9.025 28.4 8.713 28.638 L 8.713 28.638 L 8.713 28.638 Q 8.4 28.875 7.975 28.875 L 7.975 28.875 L 7.975 28.875 Q 7.55 28.875 7.25 28.65 L 7.25 28.65 L 7.25 28.65 Q 6.95 28.425 6.95 28.125 Z  M 12 28.15 L 12 28.15 L 12 14.55 L 12 14.55 Q 12 12.6 13.313 11.238 L 13.313 11.238 L 13.313 11.238 Q 14.625 9.875 16.425 9.875 L 16.425 9.875 L 17.3 9.875 L 17.3 9.875 Q 17.7 9.875 17.925 10.15 L 17.925 10.15 L 17.925 10.15 Q 18.15 10.425 18.15 10.8 L 18.15 10.8 L 18.15 10.8 Q 18.15 11.175 17.925 11.438 L 17.925 11.438 L 17.925 11.438 Q 17.7 11.7 17.3 11.7 L 17.3 11.7 L 16.775 11.7 L 16.775 11.7 Q 15.625 11.7 14.863 12.475 L 14.863 12.475 L 14.863 12.475 Q 14.1 13.25 14.075 14.375 L 14.075 14.375 L 14.075 17.025 L 17.5 17.025 L 17.5 17.025 Q 17.8 17.025 17.975 17.275 L 17.975 17.275 L 17.975 17.275 Q 18.15 17.525 18.15 17.85 L 18.15 17.85 L 18.15 17.85 Q 18.15 18.175 17.975 18.413 L 17.975 18.413 L 17.975 18.413 Q 17.8 18.65 17.5 18.65 L 17.5 18.65 L 14.075 18.65 L 14.075 28.15 L 14.075 28.15 Q 14.075 28.45 13.763 28.663 L 13.763 28.663 L 13.763 28.663 Q 13.45 28.875 13 28.875 L 13 28.875 L 13 28.875 Q 12.575 28.875 12.288 28.675 L 12.288 28.675 L 12.288 28.675 Q 12 28.475 12 28.15 Z  M 19.05 24.225 L 19.05 24.225 L 19.05 21.6 L 19.05 21.6 Q 19.05 19.675 20.513 18.275 L 20.513 18.275 L 20.513 18.275 Q 21.975 16.875 24.025 16.875 L 24.025 16.875 L 24.025 16.875 Q 25.975 16.875 27.4 18.188 L 27.4 18.188 L 27.4 18.188 Q 28.825 19.5 28.825 21.475 L 28.825 21.475 L 28.825 21.475 Q 28.825 22.2 28.65 22.638 L 28.65 22.638 L 28.65 22.638 Q 28.475 23.075 28.112 23.263 L 28.112 23.263 L 28.112 23.263 Q 27.75 23.45 27.438 23.5 L 27.438 23.5 L 27.438 23.5 Q 27.125 23.55 26.6 23.55 L 26.6 23.55 L 21.125 23.55 L 21.125 24.3 L 21.125 24.3 Q 21.125 25.675 22.112 26.5 L 22.112 26.5 L 22.112 26.5 Q 23.1 27.325 24.675 27.325 L 24.675 27.325 L 24.675 27.325 Q 25.5 27.325 26.112 27.075 L 26.112 27.075 L 26.112 27.075 Q 26.725 26.825 27.1 26.588 L 27.1 26.588 L 27.1 26.588 Q 27.475 26.35 27.7 26.35 L 27.7 26.35 L 27.7 26.35 Q 28.05 26.35 28.3 26.663 L 28.3 26.663 L 28.3 26.663 Q 28.55 26.975 28.55 27.3 L 28.55 27.3 L 28.55 27.3 Q 28.55 27.875 27.413 28.475 L 27.413 28.475 L 27.413 28.475 Q 26.275 29.075 24.6 29.075 L 24.6 29.075 L 24.6 29.075 Q 22.15 29.075 20.6 27.738 L 20.6 27.738 L 20.6 27.738 Q 19.05 26.4 19.05 24.225 Z  M 21.125 21.25 L 21.125 22.15 L 25.75 22.15 L 25.75 22.15 Q 26.4 22.15 26.625 21.988 L 26.625 21.988 L 26.625 21.988 Q 26.85 21.825 26.85 21.35 L 26.85 21.35 L 26.85 21.35 Q 26.85 20.225 26.025 19.375 L 26.025 19.375 L 26.025 19.375 Q 25.2 18.525 24 18.525 L 24 18.525 L 24 18.525 Q 22.825 18.525 21.975 19.313 L 21.975 19.313 L 21.975 19.313 Q 21.125 20.1 21.125 21.25 L 21.125 21.25 L 21.125 21.25 Z " fill="rgb(0,0,0)"/></svg>