<?xml version="1.0" standalone="no"?><!-- Generator: Gravit.io --><svg xmlns="http://www.w3.org/2000/svg" xmlns:xlink="http://www.w3.org/1999/xlink" style="isolation:isolate" viewBox="0 0 100 38" width="100" height="38"><path d=" M 28.452 24.68 L 28.452 24.68 L 28.452 25.128 L 28.452 25.128 Q 27.316 25.128 26.516 24.368 L 26.516 24.368 L 26.516 24.368 Q 25.716 23.608 25.716 22.424 L 25.716 22.424 L 25.716 14.936 L 26.228 14.936 L 26.228 17.848 L 28.436 17.848 L 28.436 18.296 L 26.228 18.296 L 26.228 22.424 L 26.228 22.424 Q 26.228 23.4 26.876 24.04 L 26.876 24.04 L 26.876 24.04 Q 27.524 24.68 28.452 24.68 Z  M 36.404 17.832 L 36.916 17.832 L 36.916 25.032 L 36.404 25.032 L 36.404 23.24 L 36.404 23.24 Q 35.956 24.152 35.06 24.68 L 35.06 24.68 L 35.06 24.68 Q 34.164 25.208 33.14 25.208 L 33.14 25.208 L 33.14 25.208 Q 31.572 25.208 30.452 24.096 L 30.452 24.096 L 30.452 24.096 Q 29.332 22.984 29.332 21.432 L 29.332 21.432 L 29.332 21.432 Q 29.332 19.88 30.452 18.768 L 30.452 18.768 L 30.452 18.768 Q 31.572 17.656 33.14 17.656 L 33.14 17.656 L 33.14 17.656 Q 34.164 17.656 35.1 18.2 L 35.1 18.2 L 35.1 18.2 Q 36.036 18.744 36.404 19.64 L 36.404 19.64 L 36.404 17.832 L 36.404 17.832 Z  M 29.844 21.448 L 29.844 21.448 L 29.844 21.448 Q 29.844 22.792 30.828 23.776 L 30.828 23.776 L 30.828 23.776 Q 31.812 24.76 33.164 24.76 L 33.164 24.76 L 33.164 24.76 Q 34.516 24.76 35.476 23.776 L 35.476 23.776 L 35.476 23.776 Q 36.436 22.792 36.436 21.44 L 36.436 21.44 L 36.436 21.44 Q 36.436 20.088 35.468 19.096 L 35.468 19.096 L 35.468 19.096 Q 34.5 18.104 33.156 18.104 L 33.156 18.104 L 33.156 18.104 Q 31.812 18.104 30.828 19.104 L 30.828 19.104 L 30.828 19.104 Q 29.844 20.104 29.844 21.448 Z  M 39.348 25.032 L 38.836 25.032 L 38.836 13.032 L 39.348 13.032 L 39.348 19.592 L 39.348 19.592 Q 39.78 18.712 40.7 18.184 L 40.7 18.184 L 40.7 18.184 Q 41.62 17.656 42.612 17.656 L 42.612 17.656 L 42.612 17.656 Q 44.196 17.656 45.308 18.768 L 45.308 18.768 L 45.308 18.768 Q 46.42 19.88 46.42 21.432 L 46.42 21.432 L 46.42 21.432 Q 46.42 22.984 45.308 24.096 L 45.308 24.096 L 45.308 24.096 Q 44.196 25.208 42.612 25.208 L 42.612 25.208 L 42.612 25.208 Q 41.652 25.208 40.74 24.688 L 40.74 24.688 L 40.74 24.688 Q 39.828 24.168 39.348 23.288 L 39.348 23.288 L 39.348 25.032 L 39.348 25.032 Z  M 39.316 21.448 L 39.316 21.448 L 39.316 21.448 Q 39.316 22.792 40.3 23.776 L 40.3 23.776 L 40.3 23.776 Q 41.284 24.76 42.636 24.76 L 42.636 24.76 L 42.636 24.76 Q 43.988 24.76 44.948 23.776 L 44.948 23.776 L 44.948 23.776 Q 45.908 22.792 45.908 21.44 L 45.908 21.44 L 45.908 21.44 Q 45.908 20.088 44.94 19.096 L 44.94 19.096 L 44.94 19.096 Q 43.972 18.104 42.628 18.104 L 42.628 18.104 L 42.628 18.104 Q 41.284 18.104 40.3 19.104 L 40.3 19.104 L 40.3 19.104 Q 39.316 20.104 39.316 21.448 Z  M 51.54 25.224 L 51.54 25.224 L 51.396 25.224 L 51.396 25.224 Q 49.876 25.224 48.748 24.08 L 48.748 24.08 L 48.748 24.08 Q 47.62 22.936 47.62 21.416 L 47.62 21.416 L 47.62 21.416 Q 47.62 19.896 48.74 18.784 L 48.74 18.784 L 48.74 18.784 Q 49.86 17.672 51.508 17.672 L 51.508 17.672 L 51.508 17.672 Q 53.156 17.672 54.34 18.984 L 54.34 18.984 L 49.316 23.944 L 49.316 23.944 Q 50.356 24.776 51.316 24.776 L 51.316 24.776 L 51.316 24.776 Q 52.276 24.776 53.036 24.336 L 53.036 24.336 L 53.036 24.336 Q 53.796 23.896 54.292 23.16 L 54.292 23.16 L 54.292 23.976 L 54.292 23.976 Q 53.156 25.224 51.54 25.224 Z  M 51.372 18.12 L 51.372 18.12 L 51.372 18.12 Q 50.1 18.12 49.116 19.104 L 49.116 19.104 L 49.116 19.104 Q 48.132 20.088 48.132 21.368 L 48.132 21.368 L 48.132 21.368 Q 48.132 22.648 48.98 23.608 L 48.98 23.608 L 53.636 18.984 L 53.636 18.984 Q 52.644 18.12 51.372 18.12 Z  M 60.068 18.808 L 60.068 18.808 Q 59.364 18.104 58.516 18.104 L 58.516 18.104 L 58.516 18.104 Q 57.668 18.104 57.02 18.744 L 57.02 18.744 L 57.02 18.744 Q 56.372 19.384 56.372 20.232 L 56.372 20.232 L 56.372 25.032 L 55.86 25.032 L 55.86 17.832 L 56.372 17.832 L 56.372 18.904 L 56.372 18.904 Q 56.66 18.36 57.268 18.008 L 57.268 18.008 L 57.268 18.008 Q 57.876 17.656 58.628 17.656 L 58.628 17.656 L 58.628 17.656 Q 59.38 17.656 60.068 18.168 L 60.068 18.168 L 60.068 18.808 L 60.068 18.808 Z  M 61.94 20.84 L 61.94 25.032 L 61.428 25.032 L 61.428 17.832 L 61.94 17.832 L 61.94 19.288 L 61.94 19.288 Q 62.756 17.656 64.724 17.656 L 64.724 17.656 L 64.724 17.656 Q 66.068 17.656 66.98 18.584 L 66.98 18.584 L 66.98 18.584 Q 67.892 19.512 67.892 20.84 L 67.892 20.84 L 67.892 25.032 L 67.38 25.032 L 67.38 20.84 L 67.38 20.84 Q 67.38 19.736 66.604 18.92 L 66.604 18.92 L 66.604 18.92 Q 65.828 18.104 64.724 18.104 L 64.724 18.104 L 64.724 18.104 Q 63.62 18.104 62.78 18.92 L 62.78 18.92 L 62.78 18.92 Q 61.94 19.736 61.94 20.84 L 61.94 20.84 L 61.94 20.84 Z  M 76.484 17.832 L 76.996 17.832 L 76.996 25.032 L 76.484 25.032 L 76.484 23.24 L 76.484 23.24 Q 76.036 24.152 75.14 24.68 L 75.14 24.68 L 75.14 24.68 Q 74.244 25.208 73.22 25.208 L 73.22 25.208 L 73.22 25.208 Q 71.652 25.208 70.532 24.096 L 70.532 24.096 L 70.532 24.096 Q 69.412 22.984 69.412 21.432 L 69.412 21.432 L 69.412 21.432 Q 69.412 19.88 70.532 18.768 L 70.532 18.768 L 70.532 18.768 Q 71.652 17.656 73.22 17.656 L 73.22 17.656 L 73.22 17.656 Q 74.244 17.656 75.18 18.2 L 75.18 18.2 L 75.18 18.2 Q 76.116 18.744 76.484 19.64 L 76.484 19.64 L 76.484 17.832 L 76.484 17.832 Z  M 69.924 21.448 L 69.924 21.448 L 69.924 21.448 Q 69.924 22.792 70.908 23.776 L 70.908 23.776 L 70.908 23.776 Q 71.892 24.76 73.244 24.76 L 73.244 24.76 L 73.244 24.76 Q 74.596 24.76 75.556 23.776 L 75.556 23.776 L 75.556 23.776 Q 76.516 22.792 76.516 21.44 L 76.516 21.44 L 76.516 21.44 Q 76.516 20.088 75.548 19.096 L 75.548 19.096 L 75.548 19.096 Q 74.58 18.104 73.236 18.104 L 73.236 18.104 L 73.236 18.104 Q 71.892 18.104 70.908 19.104 L 70.908 19.104 L 70.908 19.104 Q 69.924 20.104 69.924 21.448 Z  M 82.404 25.24 L 82.404 25.24 L 82.26 25.24 L 82.26 25.24 Q 80.724 25.24 79.62 24.104 L 79.62 24.104 L 79.62 24.104 Q 78.516 22.968 78.516 21.44 L 78.516 21.44 L 78.516 21.44 Q 78.516 19.912 79.636 18.8 L 79.636 18.8 L 79.636 18.8 Q 80.756 17.688 82.388 17.688 L 82.388 17.688 L 82.388 17.688 Q 84.02 17.688 85.172 18.92 L 85.172 18.92 L 85.172 19.736 L 85.172 19.736 Q 84.676 19 83.916 18.568 L 83.916 18.568 L 83.916 18.568 Q 83.156 18.136 82.324 18.136 L 82.324 18.136 L 82.324 18.136 Q 80.996 18.136 80.012 19.12 L 80.012 19.12 L 80.012 19.12 Q 79.028 20.104 79.028 21.464 L 79.028 21.464 L 79.028 21.464 Q 79.028 22.824 80.012 23.808 L 80.012 23.808 L 80.012 23.808 Q 80.996 24.792 82.324 24.792 L 82.324 24.792 L 82.324 24.792 Q 83.156 24.792 83.916 24.36 L 83.916 24.36 L 83.916 24.36 Q 84.676 23.928 85.172 23.176 L 85.172 23.176 L 85.172 24.008 L 85.172 24.008 Q 84.052 25.24 82.404 25.24 Z  M 89.268 24.728 L 89.268 24.728 L 89.268 25.176 L 89.268 25.176 Q 88.132 25.176 87.332 24.416 L 87.332 24.416 L 87.332 24.416 Q 86.532 23.656 86.532 22.472 L 86.532 22.472 L 86.532 13.032 L 87.044 13.032 L 87.044 22.472 L 87.044 22.472 Q 87.044 23.448 87.692 24.088 L 87.692 24.088 L 87.692 24.088 Q 88.34 24.728 89.268 24.728 Z  M 93.508 25.224 L 93.508 25.224 L 93.364 25.224 L 93.364 25.224 Q 91.844 25.224 90.716 24.08 L 90.716 24.08 L 90.716 24.08 Q 89.588 22.936 89.588 21.416 L 89.588 21.416 L 89.588 21.416 Q 89.588 19.896 90.708 18.784 L 90.708 18.784 L 90.708 18.784 Q 91.828 17.672 93.476 17.672 L 93.476 17.672 L 93.476 17.672 Q 95.124 17.672 96.308 18.984 L 96.308 18.984 L 91.284 23.944 L 91.284 23.944 Q 92.324 24.776 93.284 24.776 L 93.284 24.776 L 93.284 24.776 Q 94.244 24.776 95.004 24.336 L 95.004 24.336 L 95.004 24.336 Q 95.764 23.896 96.26 23.16 L 96.26 23.16 L 96.26 23.976 L 96.26 23.976 Q 95.124 25.224 93.508 25.224 Z  M 93.34 18.12 L 93.34 18.12 L 93.34 18.12 Q 92.068 18.12 91.084 19.104 L 91.084 19.104 L 91.084 19.104 Q 90.1 20.088 90.1 21.368 L 90.1 21.368 L 90.1 21.368 Q 90.1 22.648 90.948 23.608 L 90.948 23.608 L 95.604 18.984 L 95.604 18.984 Q 94.612 18.12 93.34 18.12 Z  M 4.196 24.728 L 4.196 24.728 L 4.196 25.176 L 4.196 25.176 Q 3.06 25.176 2.26 24.416 L 2.26 24.416 L 2.26 24.416 Q 1.46 23.656 1.46 22.472 L 1.46 22.472 L 1.46 13.032 L 1.972 13.032 L 1.972 22.472 L 1.972 22.472 Q 1.972 23.448 2.62 24.088 L 2.62 24.088 L 2.62 24.088 Q 3.268 24.728 4.196 24.728 Z  M 5.684 17.848 L 6.196 17.848 L 6.196 25.032 L 5.684 25.032 L 5.684 17.848 L 5.684 17.848 Z  M 5.94 16.088 L 5.94 16.088 L 5.94 16.088 Q 5.476 16.088 5.476 15.656 L 5.476 15.656 L 5.476 15.656 Q 5.476 15.224 5.94 15.224 L 5.94 15.224 L 5.94 15.224 Q 6.404 15.224 6.404 15.656 L 6.404 15.656 L 6.404 15.656 Q 6.404 16.088 5.94 16.088 Z  M 11.06 14.92 L 11.06 14.92 L 11.06 15.368 L 11.06 15.368 Q 10.132 15.368 9.484 16.008 L 9.484 16.008 L 9.484 16.008 Q 8.836 16.648 8.836 17.624 L 8.836 17.624 L 8.836 21.832 L 11.076 21.832 L 11.076 22.28 L 8.836 22.28 L 8.836 25.032 L 8.324 25.032 L 8.324 17.624 L 8.324 17.624 Q 8.324 16.44 9.124 15.68 L 9.124 15.68 L 9.124 15.68 Q 9.924 14.92 11.06 14.92 Z  M 15.956 25.224 L 15.956 25.224 L 15.812 25.224 L 15.812 25.224 Q 14.292 25.224 13.164 24.08 L 13.164 24.08 L 13.164 24.08 Q 12.036 22.936 12.036 21.416 L 12.036 21.416 L 12.036 21.416 Q 12.036 19.896 13.156 18.784 L 13.156 18.784 L 13.156 18.784 Q 14.276 17.672 15.924 17.672 L 15.924 17.672 L 15.924 17.672 Q 17.572 17.672 18.756 18.984 L 18.756 18.984 L 13.732 23.944 L 13.732 23.944 Q 14.772 24.776 15.732 24.776 L 15.732 24.776 L 15.732 24.776 Q 16.692 24.776 17.452 24.336 L 17.452 24.336 L 17.452 24.336 Q 18.212 23.896 18.708 23.16 L 18.708 23.16 L 18.708 23.976 L 18.708 23.976 Q 17.572 25.224 15.956 25.224 Z  M 15.788 18.12 L 15.788 18.12 L 15.788 18.12 Q 14.516 18.12 13.532 19.104 L 13.532 19.104 L 13.532 19.104 Q 12.548 20.088 12.548 21.368 L 12.548 21.368 L 12.548 21.368 Q 12.548 22.648 13.396 23.608 L 13.396 23.608 L 18.052 18.984 L 18.052 18.984 Q 17.06 18.12 15.788 18.12 Z " fill="rgb(0,0,0)"/></svg>