<?xml version="1.0" standalone="no"?><!-- Generator: Gravit.io --><svg xmlns="http://www.w3.org/2000/svg" xmlns:xlink="http://www.w3.org/1999/xlink" style="isolation:isolate" viewBox="0 0 190 45" width="190" height="45"><path d=" M 48.82 31.572 L 48.82 31.572 L 48.82 12.24 L 48.82 12.24 Q 48.82 11.916 49.09 11.7 L 49.09 11.7 L 49.09 11.7 Q 49.36 11.484 49.684 11.484 L 49.684 11.484 L 49.684 11.484 Q 50.044 11.484 50.314 11.7 L 50.314 11.7 L 50.314 11.7 Q 50.584 11.916 50.584 12.24 L 50.584 12.24 L 50.584 19.728 L 55.372 19.728 L 55.372 19.728 Q 55.66 19.728 55.858 19.962 L 55.858 19.962 L 55.858 19.962 Q 56.056 20.196 56.056 20.52 L 56.056 20.52 L 56.056 20.52 Q 56.056 20.808 55.84 21.042 L 55.84 21.042 L 55.84 21.042 Q 55.624 21.276 55.372 21.276 L 55.372 21.276 L 50.584 21.276 L 50.584 31.572 L 50.584 31.572 Q 50.584 33.48 51.412 34.272 L 51.412 34.272 L 51.412 34.272 Q 52.24 35.064 54.292 35.064 L 54.292 35.064 L 55.192 35.064 L 55.192 35.064 Q 55.552 35.064 55.786 35.298 L 55.786 35.298 L 55.786 35.298 Q 56.02 35.532 56.02 35.892 L 56.02 35.892 L 56.02 35.892 Q 56.02 36.216 55.786 36.468 L 55.786 36.468 L 55.786 36.468 Q 55.552 36.72 55.192 36.72 L 55.192 36.72 L 54.292 36.72 L 54.292 36.72 Q 48.82 36.72 48.82 31.572 Z  M 57.928 32.184 L 57.928 32.184 L 57.928 32.184 Q 57.928 29.484 60.07 28.422 L 60.07 28.422 L 60.07 28.422 Q 62.212 27.36 66.316 27.36 L 66.316 27.36 L 68.26 27.36 L 68.26 26.424 L 68.26 26.424 Q 68.26 24.264 67.126 22.698 L 67.126 22.698 L 67.126 22.698 Q 65.992 21.132 63.724 21.132 L 63.724 21.132 L 63.724 21.132 Q 62.356 21.132 61.168 21.636 L 61.168 21.636 L 61.168 21.636 Q 59.98 22.14 59.944 22.14 L 59.944 22.14 L 59.944 22.14 Q 59.584 22.14 59.368 21.816 L 59.368 21.816 L 59.368 21.816 Q 59.152 21.492 59.152 21.168 L 59.152 21.168 L 59.152 21.168 Q 59.152 20.556 60.646 20.034 L 60.646 20.034 L 60.646 20.034 Q 62.14 19.512 63.796 19.512 L 63.796 19.512 L 63.796 19.512 Q 67 19.512 68.512 21.474 L 68.512 21.474 L 68.512 21.474 Q 70.024 23.436 70.024 26.424 L 70.024 26.424 L 70.024 35.928 L 70.024 35.928 Q 70.024 36.252 69.772 36.486 L 69.772 36.486 L 69.772 36.486 Q 69.52 36.72 69.16 36.72 L 69.16 36.72 L 69.16 36.72 Q 68.8 36.72 68.548 36.486 L 68.548 36.486 L 68.548 36.486 Q 68.296 36.252 68.296 35.928 L 68.296 35.928 L 68.296 34.2 L 68.296 34.2 Q 65.92 36.936 62.896 36.936 L 62.896 36.936 L 62.896 36.936 Q 60.7 36.936 59.314 35.73 L 59.314 35.73 L 59.314 35.73 Q 57.928 34.524 57.928 32.184 Z  M 59.692 32.112 L 59.692 32.112 L 59.692 32.112 Q 59.692 33.732 60.646 34.542 L 60.646 34.542 L 60.646 34.542 Q 61.6 35.352 63.148 35.352 L 63.148 35.352 L 63.148 35.352 Q 64.984 35.352 66.622 34.038 L 66.622 34.038 L 66.622 34.038 Q 68.26 32.724 68.26 31.464 L 68.26 31.464 L 68.26 28.8 L 66.496 28.8 L 66.496 28.8 Q 64.948 28.8 63.904 28.908 L 63.904 28.908 L 63.904 28.908 Q 62.86 29.016 61.816 29.322 L 61.816 29.322 L 61.816 29.322 Q 60.772 29.628 60.232 30.33 L 60.232 30.33 L 60.232 30.33 Q 59.692 31.032 59.692 32.112 Z  M 74.632 35.928 L 74.632 35.928 L 74.632 9.9 L 74.632 9.9 Q 74.632 9.576 74.884 9.36 L 74.884 9.36 L 74.884 9.36 Q 75.136 9.144 75.496 9.144 L 75.496 9.144 L 75.496 9.144 Q 75.892 9.144 76.144 9.36 L 76.144 9.36 L 76.144 9.36 Q 76.396 9.576 76.396 9.9 L 76.396 9.9 L 76.396 22.248 L 76.396 22.248 Q 77.044 21.06 78.286 20.286 L 78.286 20.286 L 78.286 20.286 Q 79.528 19.512 81.184 19.512 L 81.184 19.512 L 81.184 19.512 Q 83.848 19.512 85.756 21.438 L 85.756 21.438 L 85.756 21.438 Q 87.664 23.364 87.664 26.1 L 87.664 26.1 L 87.664 30.276 L 87.664 30.276 Q 87.664 32.904 85.738 34.92 L 85.738 34.92 L 85.738 34.92 Q 83.812 36.936 81.256 36.936 L 81.256 36.936 L 81.256 36.936 Q 79.672 36.936 78.322 36.144 L 78.322 36.144 L 78.322 36.144 Q 76.972 35.352 76.36 34.2 L 76.36 34.2 L 76.36 35.928 L 76.36 35.928 Q 76.36 36.216 76.108 36.468 L 76.108 36.468 L 76.108 36.468 Q 75.856 36.72 75.496 36.72 L 75.496 36.72 L 75.496 36.72 Q 75.136 36.72 74.884 36.486 L 74.884 36.486 L 74.884 36.486 Q 74.632 36.252 74.632 35.928 Z  M 76.396 26.1 L 76.396 31.5 L 76.396 31.5 Q 76.396 32.544 77.836 33.912 L 77.836 33.912 L 77.836 33.912 Q 79.276 35.28 81.112 35.28 L 81.112 35.28 L 81.112 35.28 Q 83.02 35.28 84.46 33.75 L 84.46 33.75 L 84.46 33.75 Q 85.9 32.22 85.9 30.276 L 85.9 30.276 L 85.9 26.1 L 85.9 26.1 Q 85.9 24.192 84.46 22.68 L 84.46 22.68 L 84.46 22.68 Q 83.02 21.168 81.076 21.168 L 81.076 21.168 L 81.076 21.168 Q 79.24 21.168 77.818 22.536 L 77.818 22.536 L 77.818 22.536 Q 76.396 23.904 76.396 26.1 L 76.396 26.1 L 76.396 26.1 Z  M 91.084 30.276 L 91.084 30.276 L 91.084 25.992 L 91.084 25.992 Q 91.084 23.328 93.028 21.42 L 93.028 21.42 L 93.028 21.42 Q 94.972 19.512 97.708 19.512 L 97.708 19.512 L 97.708 19.512 Q 100.372 19.512 102.316 21.384 L 102.316 21.384 L 102.316 21.384 Q 104.26 23.256 104.26 26.028 L 104.26 26.028 L 104.26 26.028 Q 104.26 27 104.026 27.594 L 104.026 27.594 L 104.026 27.594 Q 103.792 28.188 103.288 28.44 L 103.288 28.44 L 103.288 28.44 Q 102.784 28.692 102.37 28.746 L 102.37 28.746 L 102.37 28.746 Q 101.956 28.8 101.2 28.8 L 101.2 28.8 L 92.848 28.8 L 92.848 30.312 L 92.848 30.312 Q 92.848 32.58 94.468 33.948 L 94.468 33.948 L 94.468 33.948 Q 96.088 35.316 98.644 35.316 L 98.644 35.316 L 98.644 35.316 Q 99.94 35.316 100.84 34.956 L 100.84 34.956 L 100.84 34.956 Q 101.74 34.596 102.208 34.236 L 102.208 34.236 L 102.208 34.236 Q 102.676 33.876 102.928 33.876 L 102.928 33.876 L 102.928 33.876 Q 103.252 33.876 103.504 34.164 L 103.504 34.164 L 103.504 34.164 Q 103.756 34.452 103.756 34.74 L 103.756 34.74 L 103.756 34.74 Q 103.756 35.424 102.262 36.18 L 102.262 36.18 L 102.262 36.18 Q 100.768 36.936 98.572 36.936 L 98.572 36.936 L 98.572 36.936 Q 95.26 36.936 93.172 35.1 L 93.172 35.1 L 93.172 35.1 Q 91.084 33.264 91.084 30.276 Z  M 92.848 25.848 L 92.848 27.324 L 100.516 27.324 L 100.516 27.324 Q 101.74 27.324 102.136 27.072 L 102.136 27.072 L 102.136 27.072 Q 102.532 26.82 102.532 26.028 L 102.532 26.028 L 102.532 26.028 Q 102.532 24.12 101.164 22.608 L 101.164 22.608 L 101.164 22.608 Q 99.796 21.096 97.708 21.096 L 97.708 21.096 L 97.708 21.096 Q 95.692 21.096 94.27 22.5 L 94.27 22.5 L 94.27 22.5 Q 92.848 23.904 92.848 25.848 L 92.848 25.848 L 92.848 25.848 Z  M 107.968 35.928 L 107.968 35.928 L 107.968 20.448 L 107.968 20.448 Q 107.968 19.728 108.832 19.728 L 108.832 19.728 L 108.832 19.728 Q 109.192 19.728 109.444 19.926 L 109.444 19.926 L 109.444 19.926 Q 109.696 20.124 109.696 20.448 L 109.696 20.448 L 109.696 22.284 L 109.696 22.284 Q 110.344 21.096 111.622 20.304 L 111.622 20.304 L 111.622 20.304 Q 112.9 19.512 114.592 19.512 L 114.592 19.512 L 115.888 19.512 L 115.888 19.512 Q 116.212 19.512 116.446 19.746 L 116.446 19.746 L 116.446 19.746 Q 116.68 19.98 116.68 20.34 L 116.68 20.34 L 116.68 20.34 Q 116.68 20.7 116.446 20.934 L 116.446 20.934 L 116.446 20.934 Q 116.212 21.168 115.888 21.168 L 115.888 21.168 L 114.592 21.168 L 114.592 21.168 Q 112.648 21.168 111.19 22.626 L 111.19 22.626 L 111.19 22.626 Q 109.732 24.084 109.732 26.424 L 109.732 26.424 L 109.732 35.928 L 109.732 35.928 Q 109.732 36.216 109.462 36.468 L 109.462 36.468 L 109.462 36.468 Q 109.192 36.72 108.832 36.72 L 108.832 36.72 L 108.832 36.72 Q 108.472 36.72 108.22 36.486 L 108.22 36.486 L 108.22 36.486 Q 107.968 36.252 107.968 35.928 Z  M 119.452 35.928 L 119.452 35.928 L 119.452 20.448 L 119.452 20.448 Q 119.452 19.728 120.316 19.728 L 120.316 19.728 L 120.316 19.728 Q 120.676 19.728 120.928 19.926 L 120.928 19.926 L 120.928 19.926 Q 121.18 20.124 121.18 20.448 L 121.18 20.448 L 121.18 22.248 L 121.18 22.248 Q 121.792 21.096 123.052 20.304 L 123.052 20.304 L 123.052 20.304 Q 124.312 19.512 126.004 19.512 L 126.004 19.512 L 126.004 19.512 Q 128.632 19.512 130.54 21.456 L 130.54 21.456 L 130.54 21.456 Q 132.448 23.4 132.448 26.1 L 132.448 26.1 L 132.448 35.928 L 132.448 35.928 Q 132.448 36.72 131.548 36.72 L 131.548 36.72 L 131.548 36.72 Q 130.684 36.72 130.684 35.928 L 130.684 35.928 L 130.684 26.1 L 130.684 26.1 Q 130.684 24.192 129.244 22.68 L 129.244 22.68 L 129.244 22.68 Q 127.804 21.168 125.86 21.168 L 125.86 21.168 L 125.86 21.168 Q 124.024 21.168 122.62 22.518 L 122.62 22.518 L 122.62 22.518 Q 121.216 23.868 121.216 26.1 L 121.216 26.1 L 121.216 35.928 L 121.216 35.928 Q 121.216 36.216 120.946 36.468 L 120.946 36.468 L 120.946 36.468 Q 120.676 36.72 120.316 36.72 L 120.316 36.72 L 120.316 36.72 Q 119.956 36.72 119.704 36.486 L 119.704 36.486 L 119.704 36.486 Q 119.452 36.252 119.452 35.928 Z  M 135.832 32.184 L 135.832 32.184 L 135.832 32.184 Q 135.832 29.484 137.974 28.422 L 137.974 28.422 L 137.974 28.422 Q 140.116 27.36 144.22 27.36 L 144.22 27.36 L 146.164 27.36 L 146.164 26.424 L 146.164 26.424 Q 146.164 24.264 145.03 22.698 L 145.03 22.698 L 145.03 22.698 Q 143.896 21.132 141.628 21.132 L 141.628 21.132 L 141.628 21.132 Q 140.26 21.132 139.072 21.636 L 139.072 21.636 L 139.072 21.636 Q 137.884 22.14 137.848 22.14 L 137.848 22.14 L 137.848 22.14 Q 137.488 22.14 137.272 21.816 L 137.272 21.816 L 137.272 21.816 Q 137.056 21.492 137.056 21.168 L 137.056 21.168 L 137.056 21.168 Q 137.056 20.556 138.55 20.034 L 138.55 20.034 L 138.55 20.034 Q 140.044 19.512 141.7 19.512 L 141.7 19.512 L 141.7 19.512 Q 144.904 19.512 146.416 21.474 L 146.416 21.474 L 146.416 21.474 Q 147.928 23.436 147.928 26.424 L 147.928 26.424 L 147.928 35.928 L 147.928 35.928 Q 147.928 36.252 147.676 36.486 L 147.676 36.486 L 147.676 36.486 Q 147.424 36.72 147.064 36.72 L 147.064 36.72 L 147.064 36.72 Q 146.704 36.72 146.452 36.486 L 146.452 36.486 L 146.452 36.486 Q 146.2 36.252 146.2 35.928 L 146.2 35.928 L 146.2 34.2 L 146.2 34.2 Q 143.824 36.936 140.8 36.936 L 140.8 36.936 L 140.8 36.936 Q 138.604 36.936 137.218 35.73 L 137.218 35.73 L 137.218 35.73 Q 135.832 34.524 135.832 32.184 Z  M 137.596 32.112 L 137.596 32.112 L 137.596 32.112 Q 137.596 33.732 138.55 34.542 L 138.55 34.542 L 138.55 34.542 Q 139.504 35.352 141.052 35.352 L 141.052 35.352 L 141.052 35.352 Q 142.888 35.352 144.526 34.038 L 144.526 34.038 L 144.526 34.038 Q 146.164 32.724 146.164 31.464 L 146.164 31.464 L 146.164 28.8 L 144.4 28.8 L 144.4 28.8 Q 142.852 28.8 141.808 28.908 L 141.808 28.908 L 141.808 28.908 Q 140.764 29.016 139.72 29.322 L 139.72 29.322 L 139.72 29.322 Q 138.676 29.628 138.136 30.33 L 138.136 30.33 L 138.136 30.33 Q 137.596 31.032 137.596 32.112 Z  M 151.924 30.276 L 151.924 30.276 L 151.924 26.172 L 151.924 26.172 Q 151.924 23.22 153.634 21.366 L 153.634 21.366 L 153.634 21.366 Q 155.344 19.512 158.692 19.512 L 158.692 19.512 L 158.692 19.512 Q 160.744 19.512 162.148 20.25 L 162.148 20.25 L 162.148 20.25 Q 163.552 20.988 163.552 21.708 L 163.552 21.708 L 163.552 21.708 Q 163.552 22.032 163.3 22.302 L 163.3 22.302 L 163.3 22.302 Q 163.048 22.572 162.724 22.572 L 162.724 22.572 L 162.724 22.572 Q 162.544 22.572 162.094 22.23 L 162.094 22.23 L 162.094 22.23 Q 161.644 21.888 160.78 21.528 L 160.78 21.528 L 160.78 21.528 Q 159.916 21.168 158.728 21.168 L 158.728 21.168 L 158.728 21.168 Q 156.316 21.168 155.002 22.5 L 155.002 22.5 L 155.002 22.5 Q 153.688 23.832 153.688 26.172 L 153.688 26.172 L 153.688 30.276 L 153.688 30.276 Q 153.688 32.652 154.984 33.966 L 154.984 33.966 L 154.984 33.966 Q 156.28 35.28 158.764 35.28 L 158.764 35.28 L 158.764 35.28 Q 160.024 35.28 160.924 34.92 L 160.924 34.92 L 160.924 34.92 Q 161.824 34.56 162.292 34.2 L 162.292 34.2 L 162.292 34.2 Q 162.76 33.84 162.976 33.84 L 162.976 33.84 L 162.976 33.84 Q 163.3 33.84 163.534 34.11 L 163.534 34.11 L 163.534 34.11 Q 163.768 34.38 163.768 34.704 L 163.768 34.704 L 163.768 34.704 Q 163.768 35.46 162.31 36.198 L 162.31 36.198 L 162.31 36.198 Q 160.852 36.936 158.692 36.936 L 158.692 36.936 L 158.692 36.936 Q 155.38 36.936 153.652 35.1 L 153.652 35.1 L 153.652 35.1 Q 151.924 33.264 151.924 30.276 Z  M 167.44 35.928 L 167.44 35.928 L 167.44 9.9 L 167.44 9.9 Q 167.44 9.576 167.692 9.36 L 167.692 9.36 L 167.692 9.36 Q 167.944 9.144 168.304 9.144 L 168.304 9.144 L 168.304 9.144 Q 168.7 9.144 168.952 9.36 L 168.952 9.36 L 168.952 9.36 Q 169.204 9.576 169.204 9.9 L 169.204 9.9 L 169.204 35.928 L 169.204 35.928 Q 169.204 36.216 168.934 36.468 L 168.934 36.468 L 168.934 36.468 Q 168.664 36.72 168.304 36.72 L 168.304 36.72 L 168.304 36.72 Q 167.944 36.72 167.692 36.486 L 167.692 36.486 L 167.692 36.486 Q 167.44 36.252 167.44 35.928 Z  M 173.596 30.276 L 173.596 30.276 L 173.596 25.992 L 173.596 25.992 Q 173.596 23.328 175.54 21.42 L 175.54 21.42 L 175.54 21.42 Q 177.484 19.512 180.22 19.512 L 180.22 19.512 L 180.22 19.512 Q 182.884 19.512 184.828 21.384 L 184.828 21.384 L 184.828 21.384 Q 186.772 23.256 186.772 26.028 L 186.772 26.028 L 186.772 26.028 Q 186.772 27 186.538 27.594 L 186.538 27.594 L 186.538 27.594 Q 186.304 28.188 185.8 28.44 L 185.8 28.44 L 185.8 28.44 Q 185.296 28.692 184.882 28.746 L 184.882 28.746 L 184.882 28.746 Q 184.468 28.8 183.712 28.8 L 183.712 28.8 L 175.36 28.8 L 175.36 30.312 L 175.36 30.312 Q 175.36 32.58 176.98 33.948 L 176.98 33.948 L 176.98 33.948 Q 178.6 35.316 181.156 35.316 L 181.156 35.316 L 181.156 35.316 Q 182.452 35.316 183.352 34.956 L 183.352 34.956 L 183.352 34.956 Q 184.252 34.596 184.72 34.236 L 184.72 34.236 L 184.72 34.236 Q 185.188 33.876 185.44 33.876 L 185.44 33.876 L 185.44 33.876 Q 185.764 33.876 186.016 34.164 L 186.016 34.164 L 186.016 34.164 Q 186.268 34.452 186.268 34.74 L 186.268 34.74 L 186.268 34.74 Q 186.268 35.424 184.774 36.18 L 184.774 36.18 L 184.774 36.18 Q 183.28 36.936 181.084 36.936 L 181.084 36.936 L 181.084 36.936 Q 177.772 36.936 175.684 35.1 L 175.684 35.1 L 175.684 35.1 Q 173.596 33.264 173.596 30.276 Z  M 175.36 25.848 L 175.36 27.324 L 183.028 27.324 L 183.028 27.324 Q 184.252 27.324 184.648 27.072 L 184.648 27.072 L 184.648 27.072 Q 185.044 26.82 185.044 26.028 L 185.044 26.028 L 185.044 26.028 Q 185.044 24.12 183.676 22.608 L 183.676 22.608 L 183.676 22.608 Q 182.308 21.096 180.22 21.096 L 180.22 21.096 L 180.22 21.096 Q 178.204 21.096 176.782 22.5 L 176.782 22.5 L 176.782 22.5 Q 175.36 23.904 175.36 25.848 L 175.36 25.848 L 175.36 25.848 Z  M 2.164 35.928 L 2.164 35.928 L 2.164 9.9 L 2.164 9.9 Q 2.164 9.576 2.416 9.36 L 2.416 9.36 L 2.416 9.36 Q 2.668 9.144 3.028 9.144 L 3.028 9.144 L 3.028 9.144 Q 3.424 9.144 3.676 9.36 L 3.676 9.36 L 3.676 9.36 Q 3.928 9.576 3.928 9.9 L 3.928 9.9 L 3.928 35.928 L 3.928 35.928 Q 3.928 36.216 3.658 36.468 L 3.658 36.468 L 3.658 36.468 Q 3.388 36.72 3.028 36.72 L 3.028 36.72 L 3.028 36.72 Q 2.668 36.72 2.416 36.486 L 2.416 36.486 L 2.416 36.486 Q 2.164 36.252 2.164 35.928 Z  M 8.464 13.032 L 8.464 13.032 L 8.464 13.032 Q 8.464 12.528 8.86 12.15 L 8.86 12.15 L 8.86 12.15 Q 9.256 11.772 9.832 11.772 L 9.832 11.772 L 9.832 11.772 Q 10.372 11.772 10.768 12.15 L 10.768 12.15 L 10.768 12.15 Q 11.164 12.528 11.164 13.032 L 11.164 13.032 L 11.164 13.032 Q 11.164 13.572 10.768 13.968 L 10.768 13.968 L 10.768 13.968 Q 10.372 14.364 9.832 14.364 L 9.832 14.364 L 9.832 14.364 Q 9.256 14.364 8.86 13.968 L 8.86 13.968 L 8.86 13.968 Q 8.464 13.572 8.464 13.032 Z  M 8.968 35.928 L 8.968 35.928 L 8.968 20.448 L 8.968 20.448 Q 8.968 19.728 9.832 19.728 L 9.832 19.728 L 9.832 19.728 Q 10.732 19.728 10.732 20.448 L 10.732 20.448 L 10.732 35.928 L 10.732 35.928 Q 10.732 36.216 10.462 36.468 L 10.462 36.468 L 10.462 36.468 Q 10.192 36.72 9.832 36.72 L 9.832 36.72 L 9.832 36.72 Q 9.472 36.72 9.22 36.486 L 9.22 36.486 L 9.22 36.486 Q 8.968 36.252 8.968 35.928 Z  M 15.484 35.964 L 15.484 35.964 L 15.484 15.66 L 15.484 15.66 Q 15.484 13.032 17.392 11.088 L 17.392 11.088 L 17.392 11.088 Q 19.3 9.144 21.892 9.144 L 21.892 9.144 L 22.504 9.144 L 22.504 9.144 Q 22.864 9.144 23.098 9.396 L 23.098 9.396 L 23.098 9.396 Q 23.332 9.648 23.332 10.008 L 23.332 10.008 L 23.332 10.008 Q 23.332 10.368 23.098 10.584 L 23.098 10.584 L 23.098 10.584 Q 22.864 10.8 22.504 10.8 L 22.504 10.8 L 22.036 10.8 L 22.036 10.8 Q 20.02 10.8 18.652 12.222 L 18.652 12.222 L 18.652 12.222 Q 17.284 13.644 17.248 15.588 L 17.248 15.588 L 17.248 19.728 L 22.576 19.728 L 22.576 19.728 Q 22.9 19.728 23.116 19.962 L 23.116 19.962 L 23.116 19.962 Q 23.332 20.196 23.332 20.484 L 23.332 20.484 L 23.332 20.484 Q 23.332 20.808 23.116 21.042 L 23.116 21.042 L 23.116 21.042 Q 22.9 21.276 22.576 21.276 L 22.576 21.276 L 17.248 21.276 L 17.248 35.964 L 17.248 35.964 Q 17.248 36.288 16.978 36.504 L 16.978 36.504 L 16.978 36.504 Q 16.708 36.72 16.312 36.72 L 16.312 36.72 L 16.312 36.72 Q 15.484 36.72 15.484 35.964 Z  M 24.808 30.276 L 24.808 30.276 L 24.808 25.992 L 24.808 25.992 Q 24.808 23.328 26.752 21.42 L 26.752 21.42 L 26.752 21.42 Q 28.696 19.512 31.432 19.512 L 31.432 19.512 L 31.432 19.512 Q 34.096 19.512 36.04 21.384 L 36.04 21.384 L 36.04 21.384 Q 37.984 23.256 37.984 26.028 L 37.984 26.028 L 37.984 26.028 Q 37.984 27 37.75 27.594 L 37.75 27.594 L 37.75 27.594 Q 37.516 28.188 37.012 28.44 L 37.012 28.44 L 37.012 28.44 Q 36.508 28.692 36.094 28.746 L 36.094 28.746 L 36.094 28.746 Q 35.68 28.8 34.924 28.8 L 34.924 28.8 L 26.572 28.8 L 26.572 30.312 L 26.572 30.312 Q 26.572 32.58 28.192 33.948 L 28.192 33.948 L 28.192 33.948 Q 29.812 35.316 32.368 35.316 L 32.368 35.316 L 32.368 35.316 Q 33.664 35.316 34.564 34.956 L 34.564 34.956 L 34.564 34.956 Q 35.464 34.596 35.932 34.236 L 35.932 34.236 L 35.932 34.236 Q 36.4 33.876 36.652 33.876 L 36.652 33.876 L 36.652 33.876 Q 36.976 33.876 37.228 34.164 L 37.228 34.164 L 37.228 34.164 Q 37.48 34.452 37.48 34.74 L 37.48 34.74 L 37.48 34.74 Q 37.48 35.424 35.986 36.18 L 35.986 36.18 L 35.986 36.18 Q 34.492 36.936 32.296 36.936 L 32.296 36.936 L 32.296 36.936 Q 28.984 36.936 26.896 35.1 L 26.896 35.1 L 26.896 35.1 Q 24.808 33.264 24.808 30.276 Z  M 26.572 25.848 L 26.572 27.324 L 34.24 27.324 L 34.24 27.324 Q 35.464 27.324 35.86 27.072 L 35.86 27.072 L 35.86 27.072 Q 36.256 26.82 36.256 26.028 L 36.256 26.028 L 36.256 26.028 Q 36.256 24.12 34.888 22.608 L 34.888 22.608 L 34.888 22.608 Q 33.52 21.096 31.432 21.096 L 31.432 21.096 L 31.432 21.096 Q 29.416 21.096 27.994 22.5 L 27.994 22.5 L 27.994 22.5 Q 26.572 23.904 26.572 25.848 L 26.572 25.848 L 26.572 25.848 Z " fill="rgb(255,255,255)"/></svg>