<?xml version="1.0" standalone="no"?>
<!DOCTYPE svg PUBLIC "-//W3C//DTD SVG 20010904//EN"
 "http://www.w3.org/TR/2001/REC-SVG-20010904/DTD/svg10.dtd">
<svg version="1.0" xmlns="http://www.w3.org/2000/svg"
 width="700.000000pt" height="700.000000pt" viewBox="0 0 700.000000 700.000000"
 preserveAspectRatio="xMidYMid meet">
<metadata>
Created by potrace 1.11, written by Peter Selinger 2001-2013
</metadata>
<g transform="translate(0.000000,700.000000) scale(0.100000,-0.100000)"
fill="#000000" stroke="none">
<path d="M3945 6775 c4 -17 13 -52 21 -80 11 -41 60 -262 81 -365 33 -167 74
-439 89 -590 14 -145 19 -416 10 -480 -3 -14 -7 -47 -11 -75 -11 -79 -53 -213
-94 -301 -168 -358 -499 -568 -891 -566 -577 4 -1040 471 -1044 1054 l-1 127
-26 -27 c-14 -15 -66 -81 -115 -147 -378 -506 -638 -1115 -738 -1728 -32 -197
-34 -214 -51 -422 -6 -78 -7 -413 0 -460 2 -16 6 -55 10 -85 3 -30 10 -77 15
-105 5 -27 11 -61 14 -75 12 -72 70 -274 102 -360 47 -121 166 -352 240 -461
305 -454 726 -772 1245 -937 53 -17 107 -33 120 -36 13 -3 65 -14 114 -24 147
-33 275 -45 465 -45 116 -1 261 7 320 18 14 2 54 9 90 15 149 26 328 77 475
137 81 33 276 131 296 149 8 8 19 14 23 14 7 0 174 110 208 138 241 195 399
366 550 596 51 77 148 264 203 391 33 76 91 263 110 358 2 10 6 26 9 35 3 9 8
35 11 57 31 195 33 231 30 510 -4 302 -6 327 -31 515 -9 63 -18 131 -21 150
-11 90 -68 360 -104 495 -143 536 -384 1062 -693 1513 -39 57 -75 111 -81 120
-5 10 -12 19 -15 22 -3 3 -44 55 -90 115 -47 61 -94 121 -106 135 -197 230
-443 480 -599 610 -50 41 -92 77 -95 80 -3 3 -15 14 -28 25 l-23 19 6 -29z
m928 -2100 c137 -305 256 -690 306 -990 6 -33 13 -76 16 -95 34 -198 52 -439
49 -665 -2 -110 -5 -212 -8 -227 -2 -16 -7 -47 -11 -70 -11 -64 -11 -66 -34
-153 -56 -219 -152 -416 -299 -615 -56 -76 -273 -300 -291 -300 -5 0 -11 -3
-13 -7 -12 -28 -237 -169 -353 -223 -153 -70 -356 -129 -500 -146 -33 -3 -69
-8 -80 -10 -54 -11 -329 -2 -405 12 -19 4 -47 8 -62 10 -15 2 -72 15 -125 29
-422 107 -799 381 -1038 755 -137 213 -227 464 -261 725 -16 116 -9 480 11
615 2 14 6 48 9 76 6 46 23 141 40 229 33 159 145 526 172 563 12 15 17 13 61
-29 193 -185 517 -348 778 -393 301 -52 544 -39 810 44 498 154 896 588 1030
1123 9 34 18 68 21 76 5 16 100 -164 177 -334z"/>
<path d="M4310 3630 c-115 -116 -241 -206 -399 -285 -151 -75 -268 -116 -534
-184 -86 -22 -183 -52 -213 -66 -279 -128 -427 -358 -418 -651 3 -105 6 -119
32 -201 32 -102 89 -192 177 -279 168 -169 396 -236 670 -199 339 45 658 280
818 600 35 71 75 197 91 290 22 126 12 458 -20 650 -23 142 -87 425 -97 431
-1 0 -49 -47 -107 -106z"/>
</g>
</svg>
