<?xml version="1.0" standalone="no"?>
<!DOCTYPE svg PUBLIC "-//W3C//DTD SVG 20010904//EN"
 "http://www.w3.org/TR/2001/REC-SVG-20010904/DTD/svg10.dtd">
<svg version="1.0" xmlns="http://www.w3.org/2000/svg"
 width="3200.000000pt" height="3200.000000pt" viewBox="0 0 3200.000000 3200.000000"
 preserveAspectRatio="xMidYMid meet">
<metadata>
Created by potrace 1.11, written by Peter Selinger 2001-2013
</metadata>
<g transform="translate(0.000000,3200.000000) scale(0.100000,-0.100000)"
fill="#000000" stroke="none">
<path d="M13816 31863 c5 -32 7 -121 5 -198 -1 -77 2 -167 8 -200 24 -135 58
-531 67 -780 8 -203 -7 -504 -37 -780 -43 -396 -86 -561 -231 -900 -71 -166
-292 -610 -405 -815 -44 -80 -97 -176 -118 -215 -236 -433 -766 -1313 -1343
-2225 -396 -627 -1390 -2141 -1658 -2525 -318 -456 -554 -855 -765 -1292 -424
-877 -718 -1825 -865 -2783 -47 -311 -69 -504 -101 -905 -20 -252 -22 -1002
-4 -1245 33 -441 39 -504 72 -765 72 -567 209 -1190 389 -1764 60 -190 201
-577 264 -724 25 -59 46 -110 46 -112 0 -13 150 -336 244 -524 248 -498 563
-1008 874 -1415 355 -465 727 -865 1172 -1263 49 -43 268 -223 340 -279 470
-363 997 -680 1475 -887 350 -152 500 -210 700 -272 212 -67 289 -63 347 15
16 22 30 30 54 30 27 0 32 4 38 31 3 17 6 2575 6 5683 1 3108 5 5683 9 5722 5
40 19 94 32 120 27 56 258 297 1051 1097 405 409 509 509 535 513 30 6 32 9
39 61 6 53 7 54 32 48 15 -4 47 -22 73 -41 40 -29 485 -477 1289 -1299 211
-215 268 -283 289 -345 6 -19 16 -89 21 -155 6 -73 10 -2337 10 -5740 l0
-5621 23 -44 c52 -105 142 -114 372 -35 180 61 393 145 509 201 28 13 53 24
57 24 17 0 309 142 469 228 293 157 676 403 909 582 47 36 92 70 102 75 9 6
32 22 50 37 316 257 435 364 699 628 595 596 1059 1214 1471 1958 400 723 688
1454 903 2287 29 115 118 519 134 615 7 36 21 115 32 175 28 153 76 506 89
655 7 69 16 172 21 230 24 267 32 484 32 840 -1 1042 -147 2032 -444 2995 -82
266 -237 693 -338 931 -24 54 -89 214 -145 354 -184 456 -320 781 -470 1115
-95 212 -364 743 -496 980 -279 503 -603 1015 -942 1490 -241 336 -475 643
-607 795 -31 36 -98 116 -148 178 -51 62 -92 109 -92 104 0 -5 11 -36 25 -70
32 -79 31 -84 -5 -42 l-30 35 16 -40 c49 -123 114 -299 114 -312 0 -23 46
-207 95 -383 92 -328 138 -549 181 -875 25 -192 31 -712 9 -900 -52 -466 -159
-833 -352 -1220 -91 -182 -137 -245 -179 -245 -44 0 -48 14 -128 402 -293
1416 -694 2704 -1189 3813 -161 361 -373 792 -484 985 -11 19 -44 78 -73 130
-75 134 -187 326 -225 385 -18 28 -81 126 -141 220 -357 557 -931 1297 -1393
1795 -136 146 -167 174 -366 334 -530 422 -1268 935 -1884 1310 l-143 87 8
-58z"/>
<path d="M10276 8893 c-4 -54 -14 -141 -24 -193 -15 -87 -17 -199 -17 -1280 0
-1148 1 -1187 19 -1237 12 -31 37 -69 61 -93 71 -70 64 -70 999 -70 559 0 840
4 883 11 128 22 187 100 204 267 12 111 35 172 75 199 27 17 73 18 884 21 966
3 916 7 961 -71 l24 -42 3 -2110 c2 -1995 1 -2112 -15 -2145 -34 -66 -53 -70
-365 -70 l-278 0 0 -59 c0 -33 -8 -88 -17 -123 -17 -58 -18 -136 -18 -943 0
-484 4 -897 8 -917 l8 -38 2304 0 c1832 0 2305 3 2312 13 4 6 9 411 11 899 2
792 1 895 -14 960 -9 40 -19 103 -21 141 l-5 67 -274 0 c-306 0 -329 4 -361
62 -17 32 -18 123 -18 2138 l0 2105 22 47 c41 90 -48 83 1023 86 1060 3 1007
6 1048 -67 16 -27 25 -69 32 -142 12 -119 40 -189 92 -230 72 -56 34 -54 953
-57 596 -2 870 1 917 8 88 15 145 57 179 132 l24 53 0 1220 c0 1132 -1 1224
-17 1281 -12 42 -18 97 -18 168 l0 106 -1045 0 -1045 0 0 -110 c0 -63 -6 -132
-14 -165 -8 -30 -18 -93 -22 -140 l-7 -85 -3646 0 c-2903 0 -3650 3 -3663 13
-11 8 -17 37 -21 92 -4 44 -13 103 -21 130 -10 31 -16 90 -16 158 l0 107
-1039 0 -1039 0 -6 -97z"/>
</g>
</svg>
