<?xml version="1.0" standalone="no"?>
<!DOCTYPE svg PUBLIC "-//W3C//DTD SVG 20010904//EN"
 "http://www.w3.org/TR/2001/REC-SVG-20010904/DTD/svg10.dtd">
<svg version="1.0" xmlns="http://www.w3.org/2000/svg"
 width="700.000000pt" height="700.000000pt" viewBox="0 0 700.000000 700.000000"
 preserveAspectRatio="xMidYMid meet">
<metadata>
Created by potrace 1.11, written by Peter Selinger 2001-2013
</metadata>
<g transform="translate(0.000000,700.000000) scale(0.100000,-0.100000)"
fill="#000000" stroke="none">
<path d="M3298 6995 c-2 -1 -41 -5 -88 -9 -100 -7 -225 -22 -295 -36 -27 -5
-61 -12 -75 -14 -209 -38 -523 -132 -677 -202 -28 -13 -54 -24 -58 -24 -11 0
-280 -136 -355 -180 -174 -102 -418 -274 -511 -361 -18 -17 -44 -39 -58 -50
-48 -37 -242 -234 -325 -329 -285 -328 -512 -718 -657 -1127 -31 -86 -96 -306
-104 -351 -3 -15 -7 -38 -10 -52 -18 -79 -44 -223 -50 -275 -4 -33 -9 -69 -11
-80 -11 -60 -18 -225 -18 -420 0 -285 12 -410 69 -706 25 -128 131 -483 169
-564 8 -16 24 -55 36 -85 55 -141 189 -388 306 -565 189 -283 473 -597 704
-777 30 -23 57 -45 60 -48 14 -14 165 -122 240 -171 317 -207 665 -361 1027
-454 73 -19 146 -37 161 -40 16 -2 64 -12 108 -20 43 -8 106 -18 139 -21 33
-3 63 -8 66 -9 15 -10 227 -20 409 -20 188 0 341 8 430 21 581 86 1015 245
1475 539 70 45 235 163 250 179 6 6 28 24 49 40 93 70 317 283 404 386 26 30
63 72 83 95 183 206 405 572 539 890 108 254 209 628 235 865 4 30 8 61 11 68
24 76 24 706 -1 826 -2 12 -7 45 -10 75 -3 29 -7 57 -9 60 -3 4 -8 34 -11 66
-4 33 -9 62 -11 64 -2 2 -371 4 -820 4 l-816 0 -10 29 c-20 57 -100 213 -154
300 -186 301 -459 550 -780 711 -87 43 -288 122 -335 131 -13 2 -51 11 -84 19
-33 8 -82 19 -110 23 -27 4 -57 9 -65 10 -106 22 -377 21 -520 0 -14 -2 -45
-7 -70 -10 -25 -4 -53 -9 -62 -12 -9 -3 -25 -7 -35 -9 -162 -37 -265 -74 -418
-150 -161 -81 -207 -109 -340 -212 -461 -358 -737 -922 -738 -1508 0 -81 9
-226 17 -265 1 -8 6 -37 10 -65 50 -328 225 -691 460 -953 70 -79 185 -188
241 -230 139 -103 218 -153 335 -212 152 -77 383 -152 535 -176 28 -4 57 -9
65 -11 98 -21 384 -21 520 2 8 1 38 5 65 9 89 14 237 54 345 94 468 174 842
517 1068 978 27 55 51 110 54 121 5 19 13 20 109 20 57 1 107 -1 111 -3 8 -5
-43 -136 -95 -244 -47 -98 -140 -250 -200 -330 -23 -30 -45 -59 -50 -65 -128
-170 -353 -367 -572 -501 -87 -53 -265 -144 -281 -144 -3 0 -20 -6 -37 -14
-121 -56 -351 -112 -542 -134 -80 -9 -392 -9 -480 1 -285 30 -590 134 -839
285 -353 213 -592 464 -806 847 -103 184 -204 510 -227 732 -10 97 -10 429 0
503 7 52 20 133 31 190 54 279 193 583 384 839 101 136 281 320 386 396 16 11
49 36 75 55 237 179 619 337 906 375 28 4 61 9 75 12 46 10 414 12 475 3 33
-4 80 -11 105 -14 102 -14 253 -51 380 -94 100 -34 284 -116 322 -143 14 -10
29 -19 33 -19 25 0 300 -200 384 -279 13 -12 18 -9 39 15 26 31 75 84 264 285
64 68 125 134 135 145 16 19 205 221 278 299 94 99 220 238 223 244 2 7 -3 12
-118 112 -77 67 -267 207 -365 271 -346 224 -767 397 -1173 483 -98 20 -245
43 -392 60 -55 7 -526 16 -532 10z m202 -3495 l0 -680 -43 0 c-50 0 -180 31
-235 57 -68 31 -169 102 -214 151 -329 352 -212 914 231 1101 64 27 160 49
219 50 l42 1 0 -680z"/>
</g>
</svg>
