<?xml version="1.0" standalone="no"?><!-- Generator: Gravit.io --><svg xmlns="http://www.w3.org/2000/svg" xmlns:xlink="http://www.w3.org/1999/xlink" style="isolation:isolate" viewBox="0 0 24 24" width="24" height="24"><path d=" M 11.57 13.16 C 10.21 13.44 9.4 14.32 9.4 15.57 C 9.4 16.91 10.51 17.99 11.89 17.99 C 13.94 17.99 15.6 16.33 15.6 14.28 C 15.6 13.21 15.45 12.16 15.14 11.16 C 14.35 12.23 12.94 12.88 11.57 13.16 Z  M 13.5 0.67 C 13.5 0.67 14.24 3.32 14.24 5.47 C 14.24 7.53 12.89 9.2 10.83 9.2 C 8.76 9.2 7.2 7.53 7.2 5.47 L 7.23 5.11 C 5.21 7.51 4 10.62 4 14 C 4 18.42 7.58 22 12 22 C 16.42 22 20 18.42 20 14 C 20 8.61 17.41 3.8 13.5 0.67 Z  M 12 20 C 8.69 20 6 17.31 6 14 C 6 12.47 6.3 10.96 6.86 9.57 C 7.87 10.58 9.27 11.2 10.83 11.2 C 13.49 11.2 15.58 9.37 16.11 6.77 C 17.34 8.97 18 11.44 18 14 C 18 17.31 15.31 20 12 20 Z " fill="rgb(255,255,255)"/></svg>