<?xml version="1.0" encoding="UTF-8"?>
<!-- Made by gio1135 using Gravit.io -->
<svg xmlns="http://www.w3.org/2000/svg" xmlns:xlink="http://www.w3.org/1999/xlink" style="isolation:isolate" viewBox="0 0 40 40" width="40" height="40">
  <defs>
    <clipPath id="_clipPath_ZrFKhbnRUHLM7FcPkt69vEuVVC0L96TW">
      <rect width="40" height="40" />
    </clipPath>
  </defs>
  <g clip-path="url(#_clipPath_ZrFKhbnRUHLM7FcPkt69vEuVVC0L96TW)">
    <mask id="_mask_vEd9gS95GUZVZLW321A7Ti4z206rf0gd">
      <path d=" M 40 20 C 40 8.962 31.038 0 20 0 C 8.962 0 0 8.962 0 20 C 0 31.038 8.962 40 20 40 Q 20.124 40 36.222 40 C 38.307 40 40 38.307 40 36.222 Q 40 20.124 40 20 Z " fill="white" stroke="none" />
    </mask>
    <linearGradient id="_lgradient_8" x1="0%" y1="50%" x2="6.123233995736766e-15%" y2="150%">
      <stop offset="0%" stop-opacity="1" style="stop-color:rgb(246,200,68)" />
      <stop offset="22.17391304347826%" stop-opacity="1" style="stop-color:rgb(244,186,21)" />
      <stop offset="100%" stop-opacity="1" style="stop-color:rgb(195,149,17)" />
    </linearGradient>
    <path d=" M 40 20 C 40 8.962 31.038 0 20 0 C 8.962 0 0 8.962 0 20 C 0 31.038 8.962 40 20 40 Q 20.124 40 36.222 40 C 38.307 40 40 38.307 40 36.222 Q 40 20.124 40 20 Z " fill="rgb(244,186,21)" mask="url(#_mask_vEd9gS95GUZVZLW321A7Ti4z206rf0gd)" vector-effect="non-scaling-stroke" stroke-width="0.4" stroke="url(#_lgradient_8)" stroke-linejoin="round" stroke-linecap="round" stroke-miterlimit="3" />
    <path d=" M 26.3 40 Q 26.376 40 36.222 40 C 38.307 40 40 38.307 40 36.222 Q 40 26.276 40 26.2 L 27.471 13.671 L 13.721 27.421 L 26.3 40 Z " fill="rgb(0,0,0)" fill-opacity="0.1" />
    <defs>
      <filter id="zRrwllmxfhwJ2Q2qbaYnrIpWpmdkF8bh" x="-200%" y="-200%" width="400%" height="400%">
        <feGaussianBlur stdDeviation="0.42936090628390283" />
      </filter>
    </defs>
    <g filter="url(#zRrwllmxfhwJ2Q2qbaYnrIpWpmdkF8bh)">
      <path d=" M 30 20.45 C 30 14.931 25.519 10.45 20 10.45 C 14.481 10.45 10 14.931 10 20.45 C 10 25.969 14.481 30.45 20 30.45 C 22.645 30.45 25.051 29.421 26.841 27.742 L 29.1 30.15 Q 29.357 30.312 29.5 30.25 Q 29.639 30.189 29.7 29.9 Q 30 20.666 30 20.45 Z " fill="rgb(0,0,0)" fill-opacity="0.2" />
    </g>
    <linearGradient id="_lgradient_9" x1="49.0990990990991%" y1="50%" x2="50.00000000000002%" y2="100%">
      <stop offset="0%" stop-opacity="1" style="stop-color:rgb(255,255,255)" />
      <stop offset="100%" stop-opacity="1" style="stop-color:rgb(221,221,221)" />
    </linearGradient>
    <path d=" M 30 20 C 30 14.481 25.519 10 20 10 C 14.481 10 10 14.481 10 20 C 10 25.519 14.481 30 20 30 C 22.645 30 25.051 28.971 26.841 27.292 L 29.1 29.7 Q 29.357 29.862 29.5 29.8 Q 29.639 29.739 29.7 29.45 Q 30 20.216 30 20 Z " fill="rgb(255,255,255)" vector-effect="non-scaling-stroke" stroke-width="0.1" stroke="url(#_lgradient_9)" stroke-linejoin="miter" stroke-linecap="square" stroke-miterlimit="3" />
    <path d=" M 30 19.932 C 29.963 14.499 25.496 10.1 20 10.1 C 14.481 10.1 10 14.536 10 20 L 20 20 L 30 19.932 Z " fill="rgb(0,0,0)" fill-opacity="0.1" />
  </g>
</svg>