<?xml version="1.0" encoding="UTF-8"?>
<!-- Made by gio1135 using Generator: Gravit.io -->
<svg xmlns="http://www.w3.org/2000/svg" xmlns:xlink="http://www.w3.org/1999/xlink" style="isolation:isolate" viewBox="0 0 800 800" width="800" height="800">
  <defs>
    <clipPath id="_clipPath_TpL0UH2sQWX0dSf32lHggbDvFGzFDy8j">
      <rect width="800" height="800" />
    </clipPath>
  </defs>
  <g clip-path="url(#_clipPath_TpL0UH2sQWX0dSf32lHggbDvFGzFDy8j)">
    <path d=" M 565.965 221.71 L 672.489 107.274 C 601.042 40.73 505.24 0 400 0 C 179.222 0 0 179.234 0 400 C 0 620.766 179.234 800 400 800 C 620.766 800 800 620.722 800 400 C 800 373.328 797.384 347.263 792.394 322.046 L 638.995 352.521 C 642.034 367.879 643.628 383.755 643.628 400 C 643.628 534.462 534.462 643.628 400 643.628 C 265.538 643.628 156.372 534.462 156.372 400 C 156.372 265.538 265.538 156.372 400 156.372 C 464.099 156.372 522.449 181.18 565.965 221.71 Z " fill="rgb(235,235,235)" />
    <mask id="_mask_Os2sZ3baTw023NAsmFnZwJ1S4cpijKHn">
      <path d=" M 565.965 221.71 L 672.489 107.274 C 601.042 40.73 505.24 0 400 0 C 179.222 0 0 179.234 0 400 C 0 620.766 179.234 800 400 800 C 620.766 800 800 620.722 800 400 C 800 373.328 797.384 347.263 792.394 322.046 L 638.995 352.521 C 642.034 367.879 643.628 383.755 643.628 400 C 643.628 534.462 534.462 643.628 400 643.628 C 265.538 643.628 156.372 534.462 156.372 400 C 156.372 265.538 265.538 156.372 400 156.372 C 464.099 156.372 522.449 181.18 565.965 221.71 Z " fill="white" stroke="none" />
    </mask>
    <linearGradient id="_lgradient_0" x1="50.000000000000014%" y1="0%" x2="50.00000000000002%" y2="101.99020295878374%">
      <stop offset="0.43478260869565216%" stop-opacity="1" style="stop-color:rgb(242,242,242)" />
      <stop offset="26.036230318914928%" stop-opacity="1" style="stop-color:rgb(240,240,240)" />
      <stop offset="76.33060693496525%" stop-opacity="1" style="stop-color:rgb(235,235,235)" />
      <stop offset="100%" stop-opacity="1" style="stop-color:rgb(188,188,188)" />
    </linearGradient>
    <path d=" M 565.965 221.71 L 672.489 107.274 C 601.042 40.73 505.24 0 400 0 C 179.222 0 0 179.234 0 400 C 0 620.766 179.234 800 400 800 C 620.766 800 800 620.722 800 400 C 800 373.328 797.384 347.263 792.394 322.046 L 638.995 352.521 C 642.034 367.879 643.628 383.755 643.628 400 C 643.628 534.462 534.462 643.628 400 643.628 C 265.538 643.628 156.372 534.462 156.372 400 C 156.372 265.538 265.538 156.372 400 156.372 C 464.099 156.372 522.449 181.18 565.965 221.71 Z " fill="rgb(235,235,235)" mask="url(#_mask_Os2sZ3baTw023NAsmFnZwJ1S4cpijKHn)" vector-effect="non-scaling-stroke" stroke-width="6" stroke="url(#_lgradient_0)" stroke-linejoin="round" stroke-linecap="round" stroke-miterlimit="3" />
    <linearGradient id="_lgradient_1" x1="31.8187760529643%" y1="27.69259524092339%" x2="65.13790828092077%" y2="102.72500900339998%">
      <stop offset="1.7391304347826086%" stop-opacity="0.1" style="stop-color:rgb(0,0,0)" />
      <stop offset="98.26086956521739%" stop-opacity="0" style="stop-color:rgb(0,0,0)" />
    </linearGradient>
    <path d=" M 451.831 796.666 C 622.374 774.555 759.36 644.832 792.39 477.962 Q 792.39 469.729 792.39 452 Q 659.25 452.412 637.966 452.412 C 613.963 561.719 516.471 643.628 400 643.628 C 329.637 643.628 266.201 613.734 221.71 565.965 L 221.42 566.255 L 451.831 796.666 Z " fill="url(#_lgradient_1)" />
    <defs>
      <filter id="B2F2Si2xQ4SIqOADPEVpCV1urKGQFyeQ" x="-200%" y="-200%" width="400%" height="400%">
        <feGaussianBlur stdDeviation="6.440413594258542" />
      </filter>
    </defs>
    <g opacity="0.3" filter="url(#B2F2Si2xQ4SIqOADPEVpCV1urKGQFyeQ)" style="mix-blend-mode:darken;">
      <path d=" M 159.372 404 C 159.372 269.538 268.538 160.372 403 160.372 C 537.462 160.372 646.628 269.538 646.628 404 C 646.628 538.462 537.462 647.628 403 647.628 C 268.538 647.628 159.372 538.462 159.372 404 Z  M 324.998 404 C 324.998 360.95 359.95 325.998 403 325.998 C 446.05 325.998 481.002 360.95 481.002 404 C 481.002 447.05 446.05 482.002 403 482.002 C 359.95 482.002 324.998 447.05 324.998 404 Z " fill-rule="evenodd" fill="rgb(0,0,0)" />
    </g>
    <mask id="_mask_yClM0YxTmiU8Qfb6nxCWIxoJh6i4xrgu">
      <path d=" M 156.372 400 C 156.372 265.538 265.538 156.372 400 156.372 C 534.462 156.372 643.628 265.538 643.628 400 C 643.628 534.462 534.462 643.628 400 643.628 C 265.538 643.628 156.372 534.462 156.372 400 Z  M 321.998 400 C 321.998 356.95 356.95 321.998 400 321.998 C 443.05 321.998 478.002 356.95 478.002 400 C 478.002 443.05 443.05 478.002 400 478.002 C 356.95 478.002 321.998 443.05 321.998 400 Z " fill-rule="evenodd" fill="white" stroke="none" />
    </mask>
    <linearGradient id="_lgradient_2" x1="49.999999999999986%" y1="1.734723475976807e-16%" x2="49.99999999999997%" y2="102.18101613707415%">
      <stop offset="0.8695652173913043%" stop-opacity="1" style="stop-color:rgb(51,171,160)" />
      <stop offset="22.608695652173914%" stop-opacity="1" style="stop-color:rgb(0,150,136)" />
      <stop offset="76.52173913043478%" stop-opacity="1" style="stop-color:rgb(0,150,136)" />
      <stop offset="98.26086956521739%" stop-opacity="1" style="stop-color:rgb(0,120,109)" />
    </linearGradient>
    <path d=" M 156.372 400 C 156.372 265.538 265.538 156.372 400 156.372 C 534.462 156.372 643.628 265.538 643.628 400 C 643.628 534.462 534.462 643.628 400 643.628 C 265.538 643.628 156.372 534.462 156.372 400 Z  M 321.998 400 C 321.998 356.95 356.95 321.998 400 321.998 C 443.05 321.998 478.002 356.95 478.002 400 C 478.002 443.05 443.05 478.002 400 478.002 C 356.95 478.002 321.998 443.05 321.998 400 Z " fill-rule="evenodd" fill="rgb(0,150,136)" mask="url(#_mask_yClM0YxTmiU8Qfb6nxCWIxoJh6i4xrgu)" vector-effect="non-scaling-stroke" stroke-width="4" stroke="url(#_lgradient_2)" stroke-linejoin="round" stroke-linecap="round" stroke-miterlimit="3" />
    <linearGradient id="_lgradient_3" x1="25.539877996524485%" y1="45.94521887177609%" x2="54.73897827910068%" y2="101.37117843017023%">
      <stop offset="0%" stop-opacity="0.15" style="stop-color:rgb(0,0,0)" />
      <stop offset="99.1304347826087%" stop-opacity="0" style="stop-color:rgb(0,0,0)" />
    </linearGradient>
    <path d=" M 643.447 409.447 C 640.266 492.701 595.226 565.305 528.792 606.794 L 400 478.002 C 443.05 478.002 478.002 443.05 478.002 400 C 478.002 400 478.002 400 478.002 400 L 556.001 322.001 L 643.447 409.447 Z " fill="url(#_lgradient_3)" />
    <defs>
      <filter id="sow7d1Xaso0x0HbyaqKVAxc7gxZe0YtL" x="-200%" y="-200%" width="400%" height="400%">
        <feGaussianBlur stdDeviation="6.440413594258542" />
      </filter>
    </defs>
    <g opacity="0.3" filter="url(#sow7d1Xaso0x0HbyaqKVAxc7gxZe0YtL)">
      <rect x="403" y="325.998" width="230" height="156.004" transform="matrix(1,0,0,1,0,0)" fill="rgb(0,0,0)" />
    </g>
    <linearGradient id="_lgradient_4" x1="58.122448197987886%" y1="1.0192572271385758%" x2="58.1224481979879%" y2="102.34461889832176%">
      <stop offset="0%" stop-opacity="1" style="stop-color:rgb(255,255,255)" />
      <stop offset="7.018633540372702%" stop-opacity="1" style="stop-color:rgb(235,235,235)" />
      <stop offset="92.80193236714975%" stop-opacity="1" style="stop-color:rgb(235,235,235)" />
    </linearGradient>
    <rect x="400" y="321.998" width="392.394" height="156.004" transform="matrix(1,0,0,1,0,0)" fill="rgb(235,235,235)" vector-effect="non-scaling-stroke" stroke-width="2" stroke="url(#_lgradient_4)" stroke-linejoin="miter" stroke-linecap="square" stroke-miterlimit="3" />
  </g>
</svg>